<svg width="81" height="69" viewBox="0 0 81 69" fill="none" xmlns="http://www.w3.org/2000/svg">
<path d="M27.4692 68.576C43.0212 68.576 54.3492 55.808 54.3492 34.4C54.3492 12.992 43.0212 0.223997 27.4692 0.223997C11.9172 0.223997 0.685161 12.992 0.685161 34.4C0.685161 55.808 11.9172 68.576 27.4692 68.576ZM27.4692 62.24C15.7572 62.24 7.69316 52.352 7.69316 34.4C7.69316 16.448 15.7572 6.56 27.4692 6.56C39.1812 6.56 47.2452 16.448 47.2452 34.4C47.2452 52.352 39.1812 62.24 27.4692 62.24ZM58.0122 0.799995V6.944H73.8522V68H80.7642V0.799995H58.0122Z" fill="#00A651"/>
</svg>
