<svg width="8" height="17" viewBox="0 0 8 17" fill="none"
    xmlns="http://www.w3.org/2000/svg">
    <path d="M4.5 1.28125C4.5 1.00511 4.27614 0.78125 4 0.78125C3.72386 0.78125 3.5 1.00511 3.5 1.28125L4.5 1.28125ZM3.64645 16.0723C3.84171 16.2676 4.15829 16.2676 4.35355 16.0723L7.53553 12.8903C7.7308 12.6951 7.7308 12.3785 7.53553 12.1832C7.34027 11.988 7.02369 11.988 6.82843 12.1832L4 15.0116L1.17157 12.1832C0.976312 11.988 0.659729 11.988 0.464467 12.1832C0.269205 12.3785 0.269205 12.6951 0.464467 12.8903L3.64645 16.0723ZM3.5 1.28125L3.5 15.7188L4.5 15.7187L4.5 1.28125L3.5 1.28125Z" fill="white"/>
</svg>
