<svg width="122" height="62" viewBox="0 0 122 62" fill="none" xmlns="http://www.w3.org/2000/svg">
<g clip-path="url(#clip0_441_2161)">
<path d="M55.9305 40.5155C55.7979 40.9797 55.6654 41.3775 55.5329 41.7091C55.2678 42.2396 55.0027 42.7701 54.7376 43.3005C54.6051 43.5658 54.5388 43.8973 54.4063 44.1626C54.2738 44.4941 54.1412 44.7594 54.075 45.0246C54.0087 45.2235 53.9424 45.3561 53.9424 45.5551H50.0989C50.2314 45.1572 50.3639 44.6931 50.5627 44.2952C50.5627 44.2289 50.5627 44.2289 50.629 44.1626H50.5627C50.2314 44.6267 49.9663 45.0909 49.7675 45.5551H46.189C46.2553 45.2898 46.3878 45.0246 46.5204 44.6931C46.3216 44.9583 46.1228 45.2898 45.924 45.5551H45.7252C47.1831 43.5658 48.641 41.5765 50.2314 39.6535C50.2977 39.6535 50.2977 39.6535 50.3639 39.6535H50.4965C50.7615 39.7198 50.9604 39.7861 51.0929 39.9187C51.0929 39.9187 51.0929 39.9187 51.0929 39.985C51.0929 39.985 51.0929 39.985 51.0929 40.0513C51.0929 40.184 51.0266 40.3166 50.8941 40.4492C50.629 40.7808 50.2977 41.1786 49.9001 41.7754C49.5025 42.3059 49.2374 42.7701 49.0386 43.1679C49.3699 42.7037 49.7675 42.2396 50.1651 41.8417C50.2977 41.7091 50.4302 41.5765 50.5627 41.4439C50.6953 41.3112 50.8278 41.1786 51.0266 41.046C51.1592 40.9797 51.2254 40.8471 51.358 40.7808C51.7556 40.3829 52.2195 39.985 52.6833 39.6535C52.8159 39.5872 52.8821 39.5209 53.0147 39.3882C53.1472 39.3219 53.2797 39.1893 53.346 39.123C53.5448 38.9904 53.8762 38.8578 54.34 38.7251C54.8039 38.5925 55.2015 38.7251 55.5329 39.0567C55.9305 39.5872 56.063 40.0513 55.9305 40.5155Z" fill="#00A651"/>
<path d="M77.799 39.8524C77.799 39.8524 77.7328 39.7861 77.799 39.8524L77.7328 39.7198L77.4014 39.2556L77.2689 39.1893C77.2026 39.1893 77.2026 39.1893 77.2026 39.123C77.0038 38.9241 76.8713 38.8577 76.7387 38.7914C76.6725 38.7914 76.6725 38.7914 76.6062 38.7251C76.5399 38.7251 76.4737 38.6588 76.4074 38.6588H76.3411C76.2086 38.6588 76.1423 38.6588 76.0098 38.6588C75.7447 38.7914 75.5459 38.9241 75.5459 38.9904C75.082 39.3882 74.7507 39.8524 74.3531 40.3166C73.6904 41.1123 73.1603 41.7754 72.7626 42.3722C72.2325 42.969 71.8349 43.4331 71.4373 43.7647C71.0397 44.0962 70.7746 44.3615 70.5095 44.4278C70.4432 44.4941 70.4432 44.4941 70.377 44.4941C70.1119 44.4278 69.9794 44.2952 69.9131 44.0299C69.8468 43.7647 69.7806 43.4331 69.8468 43.1016C69.8468 42.77 69.9131 42.3059 70.1119 41.8417C70.3107 41.4438 70.4432 41.1123 70.6421 40.847C70.7746 40.5818 70.8409 40.3166 70.7746 40.1176C70.7746 40.1176 70.7746 40.1176 70.7746 40.0513C70.7746 40.0513 70.7746 40.0513 70.7746 39.985C70.7746 39.9187 70.7083 39.8524 70.7083 39.7861C70.7083 39.7198 70.6421 39.7198 70.6421 39.6535C70.5758 39.5872 70.5758 39.5208 70.5095 39.4545C70.5095 39.4545 70.5095 39.3882 70.4432 39.3882C70.4432 39.3219 70.377 39.3219 70.377 39.3219C70.2444 39.1893 70.1782 39.0567 70.0456 38.9904C69.7806 38.7914 69.5155 38.6588 69.3167 38.5262C69.1841 38.4599 68.9853 38.3936 68.5877 38.3273C68.5215 38.3273 68.5215 38.3273 68.4552 38.3273C68.4552 38.3273 68.4552 38.3273 68.3889 38.3273H68.3227C68.0576 38.3273 67.8588 38.4599 67.7262 38.6588C67.66 38.7251 67.3286 39.2556 66.7985 40.2503C66.666 40.4492 66.5334 40.6481 66.4009 40.9134C66.2021 41.3112 66.0033 41.7091 65.937 42.0406C65.8045 42.4385 65.7382 42.8363 65.6719 43.1679C65.6057 43.1679 65.6057 43.1679 65.5394 43.1679C65.2743 43.1679 65.0092 43.1679 64.7442 43.1016C64.8104 42.8364 64.8767 42.5048 64.943 42.1069C65.0092 41.7091 65.0092 41.3112 65.0092 40.847C65.0092 40.4492 64.943 39.985 64.8104 39.5872C64.6779 39.1893 64.5454 38.7914 64.3466 38.5262C64.1478 38.3273 64.0152 38.1946 63.8827 38.1283C63.8164 38.062 63.8164 38.062 63.7501 37.9957C63.6839 37.9294 63.5513 37.8631 63.4188 37.8631H63.3525C63.2863 37.8631 63.22 37.8631 63.22 37.7968C63.0875 37.7968 62.9549 37.7305 62.7561 37.7305H62.3585C62.1597 37.7305 61.9609 37.7968 61.8284 37.8631C61.232 38.1283 60.7018 38.6588 60.3705 39.5208C60.3705 39.4545 60.3705 39.3882 60.3705 39.2556C60.3705 39.1893 60.2379 39.0567 60.1054 38.9904C59.9729 38.8577 59.8403 38.7914 59.6415 38.7914C59.509 38.7914 59.3764 38.8577 59.2439 38.9241C58.9126 39.123 58.6475 39.3219 58.3824 39.5208C58.1173 39.7861 57.8523 40.1176 57.5872 40.3829C57.3221 40.6481 57.1233 40.9797 56.8582 41.2449C56.2618 42.0406 55.7317 43.0353 55.3341 44.0962C55.1353 44.5604 55.0027 45.0909 54.8702 45.5551H57.5872C57.6535 45.2898 57.7197 45.0909 57.786 44.8257C57.9185 44.2952 58.0511 43.8973 58.2499 43.4995C58.3824 43.1016 58.5149 42.77 58.6475 42.5048C58.78 42.3059 58.9126 42.0406 59.0451 41.8417C59.1776 41.6428 59.3102 41.4438 59.4427 41.2449C59.5752 41.046 59.7078 40.847 59.8403 40.6481C60.1054 40.3829 60.2379 40.1176 60.3042 39.9187C60.2379 40.1176 60.2379 40.2503 60.1717 40.3829C60.1054 40.5155 60.1054 40.7144 60.1054 40.847C60.1054 40.9134 60.1054 40.9134 60.1054 40.9797V41.046V41.1123C60.1054 41.1786 60.1054 41.2449 60.1054 41.3112C60.1054 41.5765 60.1054 41.7754 60.1717 42.0406C60.2379 42.2396 60.2379 42.4385 60.3042 42.6374C60.4367 42.969 60.5693 43.3005 60.7018 43.4995C60.8343 43.7647 61.0331 43.8973 61.232 44.0962C61.4308 44.2952 61.6296 44.4278 61.8284 44.5604C61.8284 44.6267 61.7621 44.693 61.6958 44.7593C61.497 45.0246 61.2982 45.2898 61.1657 45.5551H64.1478C64.1478 45.4888 64.214 45.4224 64.214 45.3561C64.2803 45.2898 64.2803 45.1572 64.3466 45.0909L64.4791 44.892C64.6116 44.9583 64.7442 44.9583 65.0092 44.9583C65.0755 44.9583 65.1418 44.9583 65.1418 44.9583C65.3406 44.9583 65.5394 44.9583 65.7382 44.892C65.7382 45.1572 65.7382 45.3561 65.8045 45.5551H71.9674C71.9674 45.4888 72.0337 45.4888 72.0337 45.4224C72.2988 45.0909 72.5638 44.693 72.7626 44.2952C72.7626 44.4278 72.7626 44.4941 72.6964 44.4941C72.5638 44.8257 72.4976 45.1572 72.365 45.4888H76.2086C76.2749 45.2898 76.2749 45.1572 76.3411 44.9583L76.6725 43.831L77.4014 41.5765C77.6002 41.2449 77.7328 40.9797 77.8653 40.7144C77.9316 40.5818 77.9316 40.2503 77.799 39.8524ZM62.7561 42.3722C62.6236 42.3059 62.491 42.2396 62.3585 42.1732C62.0934 41.9743 61.8946 41.7091 61.8946 41.4438C61.8284 41.1123 61.8284 40.7144 61.8946 40.3166C61.9609 39.9187 62.1597 39.7198 62.4911 39.6535C62.6899 39.6535 62.8887 39.7861 62.9549 40.1176C62.9549 40.2503 63.0212 40.3829 63.0212 40.5155C63.0875 41.1123 62.9549 41.7754 62.7561 42.3722Z" fill="#00A651"/>
<path d="M90.5888 39.7196C90.7876 40.0511 90.7876 40.449 90.5225 40.8468C90.3237 41.1121 90.1249 41.5099 89.9261 41.9078C89.7936 42.2394 89.5948 42.5709 89.4622 42.9025C88.0706 43.8971 86.679 44.7591 85.1548 45.6212H77.6002C77.6002 45.5549 77.6665 45.4222 77.6665 45.3559C77.8653 44.5602 78.1304 43.8308 78.3954 43.1677C78.6605 42.4383 78.9919 41.7752 79.3232 41.0458C79.6545 40.3164 80.0521 39.5869 80.516 38.7249C80.6486 38.526 80.8474 38.3934 81.1124 38.3934H81.1787C81.1787 38.3934 81.1787 38.3934 81.245 38.3934C81.3112 38.3934 81.3112 38.3934 81.3775 38.3934C81.7751 38.4597 81.9739 38.526 82.1065 38.5923C82.1727 38.6586 82.3053 38.6586 82.3715 38.7249C82.5041 38.7912 82.6366 38.8575 82.8354 38.9902C82.968 39.1228 83.1668 39.3217 83.3656 39.6533C83.5644 39.9848 83.5644 40.3827 83.2993 40.7805C83.1005 41.0458 82.968 41.3773 82.9017 41.6426C82.9017 41.7089 82.8354 41.7752 82.8354 41.8415C82.8354 41.9078 82.7692 41.9741 82.7692 41.9741C82.7692 42.0404 82.7029 42.1067 82.7029 42.173C82.5703 42.5046 82.3715 42.9688 82.1727 43.4992C82.968 43.6319 83.8957 43.6982 84.956 43.6982H85.2873C85.8175 42.2394 86.3476 41.0458 86.8778 40.1837C87.4742 39.1891 87.8055 38.6586 87.8718 38.5923C87.8718 38.526 87.9381 38.526 87.9381 38.526C88.0706 38.3934 88.2694 38.2607 88.4682 38.2607C88.4682 38.2607 88.5345 38.2607 88.6008 38.2607C88.667 38.2607 88.667 38.2607 88.7333 38.2607C88.7996 38.2607 88.7996 38.2607 88.8658 38.2607C89.0646 38.3271 89.1972 38.3271 89.3297 38.3934H89.396H89.4622C89.4622 38.3934 89.4623 38.3934 89.5285 38.3934L89.7936 38.526C89.9261 38.5923 90.0587 38.6586 90.2575 38.7912C90.1912 39.1891 90.39 39.388 90.5888 39.7196Z" fill="#00A651"/>
<path d="M94.6974 38.5925L94.83 38.6588C93.836 39.5208 92.8419 40.3829 91.7154 41.2449C91.8479 40.9133 91.9804 40.6481 92.113 40.3829C92.7094 39.3219 93.0407 38.7914 93.107 38.7251C93.2395 38.5262 93.4383 38.3936 93.7034 38.3936C93.7697 38.3936 93.7697 38.3936 93.836 38.3936C93.836 38.3936 93.836 38.3936 93.9022 38.3936H93.9685C94.2998 38.4599 94.5649 38.5262 94.6974 38.5925Z" fill="#00A651"/>
<path d="M38.5682 39.3882C38.4356 39.2556 38.3694 39.1893 38.3031 39.123L38.2368 39.0567C37.773 38.7914 37.2428 38.5925 36.7127 38.5925C36.6464 38.5925 36.6464 38.5925 36.5801 38.5925C35.9837 38.5925 35.4536 38.7251 34.8572 38.9904C34.7909 38.9904 34.7246 39.0567 34.6583 39.0567C34.1945 39.3219 33.6643 39.5872 33.2667 39.985C32.7366 40.3829 32.339 40.847 31.9413 41.3112C31.5437 41.8417 31.1461 42.3722 30.8148 42.969C30.616 43.0353 30.4172 43.1016 30.2846 43.1016C29.9533 43.1679 29.622 43.1679 29.4232 43.1679C29.1581 43.1679 28.893 43.1679 28.6279 43.1016C28.6942 42.8364 28.7605 42.5048 28.8267 42.1069C28.893 41.7091 28.893 41.3112 28.893 40.847C28.893 40.4492 28.8267 40.0513 28.6942 39.6535V39.5872C28.5617 39.1893 28.4291 38.7914 28.2303 38.5262C28.0315 38.3273 27.899 38.1946 27.7664 38.1283C27.7002 38.062 27.7002 38.062 27.6339 37.9957C27.5676 37.9294 27.4351 37.8631 27.3026 37.8631H27.2363C27.17 37.8631 27.1038 37.8631 27.1038 37.7968C26.9712 37.7968 26.8387 37.7305 26.6399 37.7305H26.2423C26.0435 37.7305 25.8447 37.7968 25.7121 37.8631C25.5796 37.9294 25.4471 37.9957 25.3145 38.062C25.3145 40.9134 25.7121 43.4995 26.176 45.5551H27.899C27.899 45.4888 27.9652 45.4224 27.9652 45.3561C28.0315 45.2898 28.0315 45.1572 28.0978 45.0909L28.2303 44.892C28.3629 44.9583 28.4954 44.9583 28.7605 44.9583C29.2243 44.9583 29.6882 44.892 30.0858 44.7593C29.9533 45.0246 29.887 45.2898 29.8208 45.5551H33.0016C33.0016 45.2235 33.0679 44.892 33.2004 44.4941C33.333 43.9636 33.4655 43.4331 33.7306 42.9027C33.9957 42.3722 34.2607 41.9743 34.5258 41.5765C34.7909 41.2449 35.056 40.9797 35.321 40.7807C35.5198 40.6481 35.6524 40.6481 35.7849 40.6481C35.8512 40.6481 35.8512 40.7144 35.8512 40.7144C35.9837 40.9134 35.9837 41.1123 35.9837 41.4438C35.9174 41.7091 35.8512 42.0406 35.7186 42.3722C35.7186 42.4385 35.7186 42.4385 35.6524 42.5048C35.5198 42.77 35.3873 43.0353 35.1885 43.3005C34.9897 43.5658 34.7909 43.7647 34.6583 43.8973C34.3933 44.1626 34.1945 44.4941 34.0619 44.7593C33.9294 45.0246 33.9294 45.2898 34.0619 45.5551H36.1825C36.6464 45.3561 37.044 44.9583 37.5079 44.4941C38.038 43.8973 38.5019 43.2342 38.767 42.5048C39.0983 41.7754 39.2309 41.1123 39.2309 40.4492C39.0321 40.1176 38.8333 39.7198 38.5682 39.3882ZM26.7061 41.1123C26.7061 41.1786 26.7061 41.1786 26.7061 41.2449C26.7061 41.3112 26.7061 41.3775 26.7061 41.4438C26.7061 41.5101 26.7061 41.5101 26.7061 41.5765C26.7061 41.7091 26.6399 41.7754 26.6399 41.908C26.6399 41.9743 26.6399 41.9743 26.6399 42.0406C26.5736 42.1733 26.5736 42.3059 26.5073 42.3722C26.3748 42.3059 26.2423 42.2396 26.1097 42.1732C25.8447 41.9743 25.6459 41.7091 25.6459 41.4438C25.5796 41.1123 25.5796 40.7144 25.6459 40.3166C25.7121 39.9187 25.9109 39.7198 26.2423 39.6535C26.4411 39.6535 26.6399 39.7861 26.7061 40.1176C26.7061 40.2503 26.7724 40.3829 26.7724 40.5155C26.7724 40.6481 26.7724 40.847 26.7724 40.9797C26.7061 41.046 26.7061 41.1123 26.7061 41.1123Z" fill="#00A651"/>
<path d="M44.3335 38.46C44.5986 38.5263 44.7974 38.5263 44.9299 38.5926C44.1347 39.1894 43.3395 39.7862 42.5443 40.4493L42.6106 40.383C43.1407 39.3883 43.472 38.8578 43.5383 38.7915L43.6046 38.7252C43.7371 38.5926 43.9359 38.46 44.1347 38.46H44.201C44.201 38.46 44.201 38.46 44.2673 38.46H44.3335Z" fill="#00A651"/>
<path d="M118.223 0C113.849 12.3337 107.819 25.861 97.4145 36.2717C97.1494 36.0727 96.8843 35.8738 96.6192 35.7412L96.553 35.6749L96.4204 35.6086L96.2879 35.5422C95.8903 35.3433 95.3601 35.2107 94.6974 35.0118C94.4324 34.9455 94.101 34.9455 93.836 34.9455C92.9082 34.9455 92.0467 35.277 91.384 35.8075C91.3178 35.8075 91.3178 35.7412 91.2515 35.7412L91.1852 35.6749L91.0527 35.6086L90.9202 35.5422C90.5225 35.3433 89.9924 35.2107 89.3297 35.0118C89.0646 34.9455 88.7333 34.9455 88.4682 34.9455C87.2091 34.9455 86.0163 35.5422 85.2211 36.5369C85.1548 36.4706 85.0885 36.4043 85.0223 36.338C84.6247 36.0064 84.2271 35.7412 83.8294 35.6086C83.7632 35.6086 83.7632 35.6086 83.7632 35.5422C83.233 35.277 82.6366 35.1444 82.1065 35.0118C81.8414 34.9455 81.51 34.9455 81.245 34.9455C80.3172 34.9455 79.3895 35.277 78.6605 35.8738C78.4617 35.7412 78.2629 35.6749 77.9978 35.5422C77.799 35.4759 77.6665 35.4096 77.4677 35.3433L77.3351 35.277L77.2026 35.2107C76.8713 35.1444 76.5399 35.0781 76.2086 35.0781C75.6784 35.0781 75.1483 35.2107 74.6181 35.4096H74.2205L73.2265 36.2717C73.0277 36.4706 72.8952 36.6032 72.6964 36.8021C72.4976 36.6032 72.2988 36.4043 72.1662 36.2717C71.7023 35.8738 71.1722 35.5422 70.5758 35.3433C70.1119 35.1444 69.648 35.0118 69.2504 34.9455C68.9853 34.8791 68.654 34.8791 68.3889 34.8791C67.5937 34.8791 66.7985 35.1444 66.2021 35.5422C66.2021 35.5422 66.2021 35.5422 66.1358 35.4759C65.7382 35.1444 65.2743 34.8791 64.7442 34.6139C64.1478 34.415 63.4851 34.2824 62.8224 34.2824H62.2922H62.1597C61.0994 34.3487 60.1717 34.7465 59.3102 35.3433C58.7137 35.4096 58.1173 35.6086 57.5872 35.9401C57.5209 36.0064 57.4547 36.0064 57.3884 36.0727C56.6594 35.5422 55.7317 35.2107 54.8039 35.2107C54.4726 35.2107 54.2075 35.2107 53.8762 35.277C62.226 28.5134 71.1059 25.662 71.2385 25.5957C72.1 25.3968 72.6301 24.4684 72.2988 23.5401C72.0337 22.7444 71.1722 22.1476 70.2444 22.4791C69.5818 22.7444 57.786 26.5904 48.1771 36.0064C48.1108 36.0727 48.0446 36.139 47.912 36.2053L47.8457 36.139C47.5144 35.8738 47.2493 35.6749 46.918 35.5422L46.7854 35.4759L46.6529 35.4096C46.189 35.2107 45.7252 35.0118 45.0625 34.8791C44.7974 34.8128 44.4661 34.8128 44.201 34.8128C42.8756 34.8128 41.6828 35.4096 40.8876 36.4706C40.8876 36.5369 40.8213 36.5369 40.8213 36.6032C40.5562 36.338 40.2912 36.139 39.9598 35.9401C38.8995 35.3433 37.773 35.0118 36.6464 35.0118C36.5801 35.0118 36.5139 35.0118 36.4476 35.0118C35.3873 35.0781 34.3933 35.277 33.4655 35.7412C32.6703 36.0727 31.9413 36.5369 31.2124 37.1337C31.0799 36.8685 30.9473 36.6695 30.7485 36.4043L30.616 36.4706L30.4172 36.2717C30.1521 36.0064 29.9533 35.8075 29.7545 35.6749C29.3569 35.3433 28.893 35.0781 28.3629 34.8128C27.7664 34.6139 27.17 34.4813 26.4411 34.4813H25.9109H25.7784C25.6459 34.4813 25.5133 34.4813 25.3145 34.5476C26.5073 25.7283 32.2064 14.9861 50.2314 7.22781C68.8528 -0.795722 88.0706 4.64171 102.252 4.17754C115.97 3.77968 118.09 0.19893 118.223 0Z" fill="#00A651"/>
<path d="M70.1782 46.5496L66.4672 46.1518C66.1358 46.2181 65.937 46.0855 65.7382 45.9529C65.7382 45.9529 65.6719 45.9529 65.6719 45.8865C65.6719 45.8202 65.6057 45.6876 65.6057 45.6213C65.5394 45.4224 65.5394 45.1571 65.5394 44.9582C65.3406 44.9582 65.1418 45.0245 64.943 45.0245C64.943 44.9582 64.8767 44.8919 64.8767 44.7593C65.0755 44.8256 65.2743 44.8919 65.4731 44.9582H65.5394C66.2683 45.1571 66.9973 45.4224 67.7262 45.6213C68.5877 45.9529 69.383 46.2844 70.1782 46.5496Z" fill="#141414"/>
<path d="M53.8099 35.5422C53.8099 35.5422 53.7436 35.5422 53.8099 35.5422C53.7436 35.5422 53.8099 35.5422 53.8099 35.5422ZM121.934 39.8523C121.934 39.8523 121.867 39.786 121.934 39.8523L121.867 39.7197L121.536 39.2555L121.404 39.1892C121.337 39.1892 121.337 39.1892 121.337 39.1229C121.139 38.924 121.006 38.8577 120.873 38.7914C120.741 38.725 120.608 38.725 120.476 38.6587H120.41H120.343H120.277C120.211 38.6587 120.211 38.6587 120.211 38.6587C119.946 38.7914 119.747 38.924 119.747 38.9903H119.681C119.217 39.3881 118.885 39.8523 118.488 40.3828C118.156 40.9133 117.825 41.3775 117.626 41.7753C117.361 42.3058 117.03 42.8363 116.632 43.4994C116.235 44.1625 115.837 44.7593 115.506 45.3561C115.108 45.9529 114.711 46.4833 114.313 46.8812C113.915 47.3454 113.65 47.6106 113.385 47.6769C113.319 47.7432 113.319 47.7432 113.253 47.7432C113.12 47.7432 113.054 47.6769 112.921 47.6106L112.855 47.5443C112.855 47.478 112.789 47.4117 112.789 47.3454C112.789 47.3454 112.789 47.3454 112.789 47.2791C112.722 47.0138 112.656 46.6823 112.722 46.3507C112.722 46.0192 112.789 45.6876 112.855 45.3561C112.921 45.0245 112.988 44.7593 113.054 44.5603C113.054 44.494 113.054 44.494 113.054 44.494C113.054 44.494 113.054 44.494 113.054 44.4277C113.054 44.3614 113.12 44.3614 113.12 44.2951C113.186 44.2288 113.186 44.0962 113.253 44.0299C113.253 43.9635 113.319 43.9635 113.319 43.8972C113.385 43.7646 113.451 43.5657 113.518 43.3668C113.716 42.8363 113.915 42.3721 114.18 41.9742C114.379 41.5101 114.578 41.1785 114.777 40.9133C114.976 40.5154 114.976 40.1176 114.777 39.786C114.578 39.4545 114.379 39.2555 114.247 39.1229C113.982 38.924 113.716 38.7914 113.518 38.6587C113.385 38.5924 113.186 38.5261 112.789 38.4598H112.722C112.722 38.4598 112.722 38.4598 112.656 38.4598C112.59 38.4598 112.59 38.4598 112.524 38.4598C112.259 38.4598 112.06 38.5924 111.927 38.7914C111.861 38.8577 111.53 39.3881 110.999 40.3828C110.469 41.3775 109.873 42.7037 109.276 44.4277C109.276 44.494 109.276 44.494 109.276 44.5603C109.276 44.6266 109.276 44.6267 109.276 44.693C109.144 44.8919 109.078 45.0908 109.078 45.2898C108.481 47.3454 108.415 48.8705 108.945 49.9315C109.409 50.8598 110.204 51.324 111.397 51.324H111.331C111.397 51.324 111.53 51.324 111.596 51.324C111.662 51.324 111.728 51.324 111.795 51.324C111.927 51.324 111.993 51.324 112.126 51.2577C112.192 51.2577 112.192 51.1914 112.259 51.1914C112.259 51.1914 112.325 51.1914 112.325 51.125C112.391 51.125 112.457 51.125 112.524 51.0587H112.59C112.59 51.0587 112.656 51.0587 112.656 50.9924C112.656 50.9924 112.722 50.9924 112.722 50.9261C112.789 50.9261 112.789 50.8598 112.855 50.8598C112.921 50.7935 113.054 50.7272 113.12 50.6609C113.518 50.3293 113.982 49.9315 114.379 49.3347C114.777 48.8042 115.174 48.2074 115.572 47.6106C115.439 48.34 115.439 48.9368 115.439 49.401C115.439 49.8652 115.439 50.263 115.506 50.5946C115.506 50.8598 115.638 51.0587 115.903 51.324C116.367 51.5892 116.765 51.7218 117.229 51.7881C117.295 51.7881 117.361 51.7881 117.361 51.7881C117.428 51.7881 117.494 51.7881 117.494 51.7881C117.693 51.7881 117.891 51.8545 118.09 51.8545C118.024 51.8545 117.958 51.8545 117.891 51.8545C118.024 51.8545 118.09 51.8545 118.223 51.8545C118.289 51.8545 118.289 51.8545 118.355 51.8545C118.753 51.8545 119.084 51.7881 119.416 51.7218C119.482 51.7218 119.548 51.6555 119.681 51.6555C119.747 51.6555 119.813 51.5892 119.879 51.5892C120.012 51.5229 120.145 51.5229 120.211 51.4566H120.277C120.277 51.4566 120.343 51.4566 120.343 51.3903C120.41 51.324 120.476 51.2577 120.41 51.125C120.41 51.0587 120.41 51.0587 120.343 50.9924C120.343 50.9261 120.277 50.8598 120.277 50.7935L120.211 50.7272C119.747 50.1304 119.482 49.2684 119.482 48.2737C119.482 47.6106 119.548 47.0138 119.681 46.3507C119.681 46.2181 119.747 46.0855 119.747 45.9529C119.813 45.8202 119.813 45.6876 119.879 45.555C119.946 45.4224 119.946 45.2898 120.012 45.1571C120.012 45.0908 120.078 45.0245 120.078 44.9582C120.145 44.7593 120.211 44.494 120.343 44.2951C120.41 44.0962 120.542 43.8309 120.608 43.632C120.675 43.5657 120.675 43.4994 120.741 43.4331C120.807 43.1678 120.94 42.9689 121.006 42.7037C121.139 42.4384 121.205 42.2395 121.337 42.0406C121.602 41.5764 121.801 41.2448 121.934 40.9796C122 40.5817 122.066 40.2502 121.934 39.8523ZM112.06 38.5261C112.126 38.5261 112.126 38.5261 112.06 38.5261C112.126 38.5261 112.126 38.5261 112.06 38.5261ZM121.337 36.8021C121.205 36.7357 121.006 36.6694 120.608 36.6031C120.277 36.5368 119.813 36.4042 119.416 36.1389C118.952 35.8737 118.488 35.5422 118.024 35.0117C117.56 34.4812 117.162 33.7518 116.831 32.8234C116.765 32.6908 116.765 32.6245 116.699 32.6245C116.632 32.6245 116.632 32.6245 116.566 32.6908C116.5 32.6908 116.5 32.6908 116.433 32.6908H116.367H116.301C116.301 32.6908 116.301 32.6908 116.235 32.6908H116.168C115.97 32.6908 115.771 32.8234 115.506 32.9561C115.174 33.155 114.976 33.3539 114.777 33.5529C114.644 33.7518 114.512 34.017 114.512 34.3486C114.445 34.6801 114.578 35.078 114.843 35.5422C115.174 36.1389 115.771 36.6031 116.632 36.9347C117.494 37.2662 118.355 37.3988 119.15 37.4652C119.416 37.4652 119.614 37.4652 119.879 37.4652H119.813C119.879 37.4652 119.946 37.4652 119.946 37.4652C119.879 37.4652 119.879 37.4652 119.879 37.4652C120.41 37.4652 120.807 37.3988 121.139 37.3325C121.669 37.1999 121.735 37.0673 121.337 36.8021ZM108.879 39.7197C108.68 39.3881 108.481 39.1892 108.282 39.0566C108.084 38.924 107.951 38.8577 107.885 38.7914L107.62 38.6587C107.487 38.5924 107.222 38.5261 106.891 38.4598C106.825 38.4598 106.825 38.4598 106.758 38.4598C106.692 38.4598 106.692 38.4598 106.626 38.4598C106.427 38.4598 106.228 38.5924 106.096 38.725C106.096 38.725 106.096 38.7914 106.029 38.7914C105.963 38.8577 105.632 39.3881 105.035 40.3828C104.505 41.3775 103.909 42.7037 103.312 44.3614C102.716 45.8865 102.385 47.2127 102.318 48.2737C102.252 49.3347 102.252 50.0641 102.318 50.5946C102.385 50.6609 102.385 50.7935 102.451 50.9261C102.517 51.0587 102.583 51.1914 102.782 51.324C103.18 51.5892 103.644 51.7218 104.108 51.7881C104.505 51.8545 104.903 51.9208 105.3 51.9208C105.698 51.8545 106.029 51.8545 106.294 51.7881C106.626 51.6555 106.891 51.5892 107.09 51.5229C107.288 51.4566 107.355 51.324 107.222 51.1914L107.09 50.7935C106.626 50.1967 106.361 49.401 106.361 48.34C106.361 47.2791 106.56 46.2181 106.891 45.1571L107.222 44.2951C107.355 43.9635 107.487 43.6983 107.62 43.3668C107.819 42.8363 108.084 42.3721 108.282 41.9742C108.481 41.5101 108.68 41.1785 108.879 40.9133C109.078 40.3828 109.144 40.0512 108.879 39.7197ZM101.258 46.1518C101.258 45.8865 101.192 45.6213 101.125 45.3561C101.059 45.2234 101.059 45.0908 100.993 44.9582C100.993 44.8919 100.927 44.8256 100.927 44.7593C100.927 44.693 100.86 44.6266 100.794 44.5603C100.794 44.494 100.728 44.494 100.728 44.4277C100.728 44.3614 100.662 44.3614 100.662 44.2951C100.595 44.2288 100.529 44.1625 100.529 44.0962C100.529 44.0299 100.463 44.0299 100.463 44.0299L100.397 43.9635C100.065 43.632 99.6676 43.4331 99.2037 43.3004C98.8724 43.1678 98.4748 43.1678 98.0771 43.1678H98.1434C98.0109 43.1678 97.9446 43.1678 97.8121 43.1678C97.8783 43.1678 97.9446 43.1678 98.0109 43.1678C97.8783 43.1678 97.6795 43.1678 97.547 43.2341C97.547 43.2341 97.547 43.2341 97.4807 43.2341H97.4145H97.3482C97.2819 43.2341 97.2819 43.2341 97.2157 43.2341C96.553 43.3668 95.8903 43.632 95.1613 43.9635C94.9625 44.0962 94.83 44.1625 94.7637 44.2951C94.6312 44.3614 94.5649 44.4277 94.4324 44.4277V44.2951C94.4987 44.2951 94.4987 44.2951 94.4987 44.2288V44.1625C94.6312 43.8972 94.6975 43.632 94.83 43.4331C95.0288 42.9026 95.2939 42.4384 95.4927 41.9742C95.6915 41.5101 95.8903 41.1785 96.0891 40.847C96.3542 40.4491 96.3542 40.0512 96.1554 39.7197C95.9566 39.3881 95.7578 39.1229 95.559 38.9903C95.3601 38.8577 95.2276 38.725 95.0951 38.725L94.9625 38.6587L94.83 38.5924C94.6975 38.5261 94.4324 38.4598 94.1011 38.3935H94.0348H93.9685C93.9022 38.3935 93.9023 38.3935 93.836 38.3935C93.5709 38.3935 93.3721 38.5261 93.2396 38.725C93.1733 38.7914 92.8419 39.3218 92.2455 40.3828C92.113 40.648 91.9805 40.9133 91.8479 41.2448C91.4503 42.1069 90.9864 43.2341 90.5226 44.494C90.4563 44.5603 90.3238 45.0908 89.9924 46.0855C89.4623 47.478 89.2635 48.539 89.396 49.2684C89.5285 49.9978 89.8599 50.5946 90.2575 50.9924C90.7214 51.324 91.384 51.5892 92.113 51.7218H92.6432C92.7757 51.7218 92.9745 51.7218 93.107 51.6555C93.2396 51.5892 93.3721 51.5229 93.4384 51.4566L93.5046 51.3903V51.324C93.5709 51.2577 93.5709 51.125 93.5046 50.9924V50.9261C93.5046 50.8598 93.5046 50.8598 93.4384 50.7935C93.4384 50.7272 93.3721 50.5946 93.3058 50.5283C93.3058 50.5283 93.3058 50.4619 93.2396 50.4619C93.1733 50.263 93.107 50.0641 93.0408 49.9315C92.9745 49.5999 92.9082 49.3347 92.9082 49.0694C92.9082 48.6716 92.9082 48.4063 92.9082 48.2074C92.9082 48.1411 92.9082 48.1411 92.9082 48.0748C92.9082 48.0085 92.9082 47.9422 92.9082 47.9422C92.9082 47.8758 92.9082 47.8095 92.9082 47.8095C92.9082 47.7432 92.9082 47.6769 92.9745 47.5443V47.478C92.9745 47.4117 93.0408 47.3454 93.0408 47.3454C93.107 47.1464 93.1733 47.0138 93.1733 46.8149C93.2396 46.7486 93.3058 46.6823 93.3721 46.5496C93.6372 46.2844 93.9022 46.0855 94.2336 45.8202C94.83 45.2898 95.4264 44.8919 96.0228 44.6267C96.0891 44.6267 96.1554 44.5603 96.2216 44.5603C96.6855 44.3614 97.0831 44.2951 97.4145 44.4277H97.4807C97.8121 44.5603 97.9446 44.9582 97.8783 45.6213C97.8121 46.2181 97.6795 46.9475 97.4145 47.6769C97.1494 48.4063 96.8843 49.0031 96.553 49.5999C96.4867 49.7325 96.4204 49.8652 96.2879 49.9315C96.0228 50.263 95.7578 50.3956 95.559 50.3293C95.2939 50.263 95.1613 50.1304 95.2939 49.9315C95.2939 49.8652 95.3601 49.7988 95.3601 49.7325C95.3601 49.6662 95.4264 49.5999 95.4927 49.5336C95.559 49.4673 95.559 49.401 95.6252 49.3347C95.6915 49.2684 95.7578 49.202 95.7578 49.1357C96.0228 48.8705 96.1554 48.539 96.3542 48.2737C96.3542 48.2737 96.3542 48.2074 96.4204 48.2074V48.1411C96.4867 47.9422 96.4204 47.8095 96.2216 47.7432C95.9566 47.6106 95.6915 47.5443 95.4264 47.5443C95.4264 47.5443 95.4264 47.5443 95.4927 47.5443C95.4264 47.5443 95.3602 47.5443 95.2939 47.5443C95.3602 47.5443 95.3601 47.5443 95.4264 47.5443C95.2939 47.5443 95.1613 47.5443 95.0288 47.6106H94.9625C94.5649 47.7432 94.2999 47.9422 94.1011 48.1411C93.836 48.34 93.6372 48.6053 93.5046 48.9368C93.3721 49.2684 93.3058 49.5999 93.3721 49.8652C93.3721 50.1967 93.5046 50.4619 93.7034 50.7272C93.9022 50.9924 94.2336 51.2577 94.6312 51.4566C95.0288 51.5892 95.4264 51.6555 95.8903 51.6555C96.3542 51.6555 96.7518 51.5892 97.0169 51.5229C97.4145 51.4566 97.7458 51.324 98.0109 51.125C98.7398 50.7272 99.3363 50.263 99.8001 49.6662C100.198 49.2021 100.463 48.6716 100.662 48.1411C100.728 48.0085 100.728 47.8758 100.794 47.8095C100.794 47.7432 100.86 47.6769 100.86 47.6106C101.192 47.1464 101.258 46.616 101.258 46.1518ZM90.5888 39.7197C90.39 39.3881 90.1912 39.1892 89.9924 39.0566C89.7936 38.924 89.6611 38.7914 89.5285 38.7914L89.2635 38.6587C89.2635 38.6587 89.2635 38.6587 89.1972 38.6587H89.1309H89.0647C88.9321 38.5924 88.7996 38.5924 88.6008 38.5261C88.5345 38.5261 88.5345 38.5261 88.4682 38.5261C88.402 38.5261 88.402 38.5261 88.3357 38.5261C88.2694 38.5261 88.2694 38.5261 88.2032 38.5261C88.0044 38.5261 87.8056 38.5924 87.673 38.7914L87.6068 38.8577C87.5405 38.924 87.2091 39.4545 86.6127 40.4491C86.0826 41.3111 85.6187 42.5047 85.0223 43.9635H84.6909C83.6307 43.8972 82.7029 43.8309 81.9077 43.7646C82.1065 43.1678 82.3053 42.77 82.4378 42.4384C82.4378 42.3721 82.5041 42.3058 82.5041 42.2395C82.5041 42.1732 82.5704 42.1069 82.5704 42.1069C82.6366 42.0406 82.6366 41.9742 82.6366 41.9079C82.7692 41.6427 82.9017 41.3111 83.0342 41.0459C83.2993 40.648 83.2993 40.2502 83.1005 39.9186C82.9017 39.5871 82.7029 39.3881 82.5704 39.2555C82.3716 39.1229 82.239 38.9903 82.1065 38.9903C81.9739 38.924 81.9077 38.924 81.8414 38.8577C81.7089 38.7914 81.5101 38.725 81.1125 38.6587C81.0462 38.6587 81.0462 38.6587 80.9799 38.6587C80.9137 38.6587 80.9137 38.6587 80.8474 38.6587C80.5823 38.6587 80.3835 38.7914 80.251 38.9903C79.7871 39.786 79.4557 40.5817 79.0581 41.3111C78.7268 42.0406 78.3955 42.7037 78.1304 43.4331C77.8653 44.1625 77.6002 44.8919 77.4014 45.6213C77.4014 45.6876 77.3352 45.8202 77.3352 45.8865C77.1364 46.5496 77.0038 47.3454 76.8713 48.1411C76.805 48.5389 76.8713 48.9368 76.9375 49.2684C77.0038 49.5999 77.1364 49.9315 77.3352 50.1967C77.534 50.4619 77.7328 50.7272 77.9978 50.9261C78.2629 51.125 78.8593 51.2577 79.7208 51.3903C79.7871 51.4566 79.7871 51.4566 79.8534 51.3903C79.9859 51.324 80.0522 51.1914 80.1847 50.9924C80.251 50.9261 80.251 50.7272 80.251 50.5283V50.3956C80.516 49.0694 80.7148 47.9422 80.9799 47.0138C81.1787 47.0138 81.4438 47.0138 81.7089 46.9475C82.5041 46.8149 83.3656 46.6823 84.1608 46.4833C83.962 47.2127 83.8295 47.9422 83.6969 48.5389C83.6307 49.5999 83.6307 50.3293 83.6969 50.8598C83.7632 50.9261 83.7632 51.0587 83.8295 51.1914C83.8957 51.324 83.962 51.4566 84.1608 51.5892C84.6247 51.8545 85.0223 51.9871 85.4862 52.0534C85.95 52.1197 86.2814 52.186 86.679 52.186C87.0766 52.1197 87.408 52.1197 87.673 52.0534C88.0044 51.9208 88.2694 51.8545 88.4682 51.7881C88.667 51.7218 88.7333 51.5892 88.6008 51.4566L88.4682 51.0587C88.0044 50.4619 87.7393 49.6662 87.7393 48.6053C87.7393 47.5443 87.9381 46.4833 88.2694 45.4224L88.6008 44.5603C88.7333 44.2288 88.8659 43.9635 88.9984 43.632C89.0647 43.4994 89.1309 43.3668 89.1972 43.2341C89.3297 42.9026 89.5285 42.5047 89.6611 42.2395C89.8599 41.7753 90.0587 41.4438 90.2575 41.1785C90.7876 40.3828 90.8539 40.0512 90.5888 39.7197ZM81.0462 38.4598C80.9799 38.4598 80.9799 38.4598 80.9137 38.4598C80.9799 38.4598 80.9799 38.4598 81.0462 38.4598ZM77.799 39.8523C77.799 39.8523 77.7328 39.786 77.799 39.8523L77.7328 39.7197L77.4014 39.2555L77.2689 39.1892C77.2026 39.1892 77.2026 39.1892 77.2026 39.1229C77.0038 38.924 76.8713 38.8577 76.7388 38.7914C76.6725 38.7914 76.6725 38.7914 76.6062 38.725C76.5399 38.725 76.4737 38.6587 76.4074 38.6587H76.3411C76.2086 38.6587 76.1423 38.6587 76.0098 38.6587C75.7447 38.7914 75.5459 38.924 75.5459 38.9903C75.082 39.3881 74.7507 39.8523 74.3531 40.3165C73.6904 41.1122 73.1603 41.7753 72.7626 42.3721C72.2325 42.9689 71.8349 43.4331 71.4373 43.7646C71.0397 44.0962 70.7746 44.3614 70.5095 44.4277C70.4433 44.494 70.4433 44.494 70.377 44.494C70.1119 44.4277 69.9794 44.2951 69.9131 44.0299C69.8468 43.7646 69.7806 43.4331 69.8468 43.1015C69.8468 42.77 69.9131 42.3058 70.1119 41.8416C70.3107 41.4438 70.4433 41.1122 70.6421 40.847C70.7746 40.5817 70.8409 40.3165 70.7746 40.1176C70.7746 40.1176 70.7746 40.1176 70.7746 40.0512C70.7746 40.0512 70.7746 40.0512 70.7746 39.9849C70.7746 39.9186 70.7083 39.8523 70.7083 39.786C70.7083 39.7197 70.6421 39.7197 70.6421 39.6534C70.5758 39.5871 70.5758 39.5208 70.5095 39.4545C70.5095 39.4545 70.5095 39.3881 70.4433 39.3881C70.4433 39.3218 70.377 39.3218 70.377 39.3218C70.2444 39.1892 70.1782 39.0566 70.0456 38.9903C69.7806 38.7914 69.5155 38.6587 69.3167 38.5261C69.1842 38.4598 68.9854 38.3935 68.5877 38.3272C68.5215 38.3272 68.5215 38.3272 68.4552 38.3272C68.3889 38.3272 68.3889 38.3272 68.3227 38.3272C68.0576 38.3272 67.8588 38.4598 67.7263 38.6587C67.66 38.725 67.3286 39.2555 66.7985 40.2502C66.666 40.4491 66.5334 40.648 66.4009 40.9133C66.2021 41.3111 66.0033 41.709 65.937 42.0406C65.8045 42.4384 65.7382 42.8363 65.6719 43.1678C65.6057 43.1678 65.6057 43.1678 65.5394 43.1678C65.2743 43.1678 65.0093 43.1678 64.7442 43.1015C64.8104 42.8363 64.8767 42.5047 64.943 42.1069C65.0093 41.709 65.0093 41.3111 65.0093 40.847C65.0093 40.4491 64.943 39.9849 64.8105 39.5871C64.6779 39.1892 64.5454 38.7914 64.3466 38.5261C64.1478 38.3272 64.0152 38.1946 63.8827 38.1283C63.8164 38.0619 63.8164 38.0619 63.7502 37.9956C63.6839 37.9293 63.5513 37.863 63.4188 37.863H63.3525C63.2863 37.863 63.22 37.863 63.22 37.7967C63.0875 37.7967 62.9549 37.7304 62.7561 37.7304H62.3585C62.1597 37.7304 61.9609 37.7967 61.8284 37.863C61.232 38.1283 60.7018 38.6587 60.3705 39.5208C60.3705 39.4545 60.3705 39.3881 60.3705 39.2555C60.3705 39.1892 60.2379 39.0566 60.1054 38.9903C59.9729 38.8577 59.8403 38.7914 59.6415 38.7914C59.5753 38.7914 59.5753 38.7914 59.509 38.7914H59.5753C59.4427 38.7914 59.3102 38.8577 59.1776 38.924C58.8463 39.1229 58.5812 39.3218 58.3162 39.5208C58.0511 39.786 57.786 40.1176 57.5209 40.3828C57.2559 40.648 57.0571 40.9796 56.792 41.2448C56.1956 42.0406 55.6654 43.0352 55.2678 44.0962C55.069 44.5603 54.9365 45.0908 54.8039 45.555C54.6714 46.1518 54.5389 46.6823 54.5389 47.2127C54.4726 48.2074 54.6051 49.0694 54.9365 49.7988C55.2678 50.5283 55.9305 50.9924 56.8583 51.125C57.786 51.2577 58.6475 51.125 59.4427 50.7272C59.4427 50.7272 59.509 50.7272 59.509 50.6609H59.5753C60.3705 50.263 61.0332 49.7325 61.6296 49.1357C62.226 48.5389 62.6899 47.8758 63.0875 47.2127C63.4851 46.5496 63.7502 46.0192 63.949 45.555V45.4887C63.949 45.4224 64.0152 45.3561 64.0152 45.2898C64.0815 45.2234 64.0815 45.0908 64.1478 45.0245L64.2803 44.8256C64.4128 44.8919 64.5454 44.8919 64.8105 44.8919C64.8767 44.8919 64.943 44.8919 64.943 44.8919C65.1418 44.8919 65.3406 44.8919 65.5394 44.8256C65.5394 45.0908 65.5394 45.2898 65.6057 45.4887C65.6057 45.555 65.6719 45.6876 65.6719 45.7539C65.7382 46.0192 65.8045 46.2844 65.937 46.4833C66.4009 47.4117 67.1961 47.8758 68.3889 47.8758H68.3227C68.3889 47.8758 68.5215 47.8758 68.5877 47.8758C68.654 47.8758 68.7203 47.8758 68.7865 47.8758C68.9854 47.8758 69.1179 47.8095 69.3167 47.7432C69.383 47.7432 69.4492 47.7432 69.5155 47.6769C69.5818 47.6769 69.5818 47.6769 69.648 47.6106H69.7143C69.7143 47.6106 69.7143 47.6106 69.7806 47.6106C69.7806 47.6106 69.8468 47.6106 69.8468 47.5443C69.8468 47.5443 69.9131 47.5443 69.9131 47.478C69.9794 47.4117 70.0456 47.3454 70.1782 47.2791C70.377 47.1464 70.5758 46.9475 70.7083 46.8149C70.8409 46.6823 70.9071 46.616 71.0397 46.4833C71.1059 46.417 71.1722 46.3507 71.1722 46.2844C71.2385 46.2181 71.3047 46.0855 71.4373 46.0192C71.5698 45.8865 71.7024 45.6876 71.8349 45.4887C71.8349 45.4224 71.9012 45.4224 71.9012 45.3561C72.1662 45.0245 72.4313 44.6266 72.6301 44.2288C72.6301 44.3614 72.6301 44.4277 72.5638 44.4277C72.4313 44.7593 72.365 45.0908 72.2325 45.4224C71.9674 46.3507 71.7686 47.2127 71.7024 47.9422C71.6361 49.0031 71.6361 49.7325 71.7024 50.263C71.7686 50.3293 71.7686 50.4619 71.8349 50.5946C71.9012 50.7272 71.9674 50.8598 72.1662 50.9924C72.6301 51.2577 73.0277 51.3903 73.4916 51.4566C73.9555 51.5229 74.2868 51.5892 74.6844 51.5892C75.082 51.5229 75.4134 51.5229 75.6785 51.4566C76.0098 51.324 76.2749 51.2577 76.4737 51.1914C76.6725 51.125 76.7387 50.9924 76.6062 50.8598L76.4737 50.4619C76.0098 49.8652 75.7447 49.0694 75.7447 48.0085C75.7447 47.1464 75.8773 46.2844 76.0761 45.4224C76.1423 45.2234 76.1423 45.0908 76.2086 44.8919L76.5399 43.7646L77.2689 41.5101C77.4677 41.1785 77.6002 40.9133 77.7328 40.648C77.9316 40.5817 77.9316 40.2502 77.799 39.8523ZM61.8946 40.3165C61.9609 39.9186 62.1597 39.7197 62.4911 39.6534C62.6899 39.6534 62.8887 39.786 62.9549 40.1176C62.9549 40.2502 63.0212 40.3828 63.0212 40.5154C63.0875 41.1122 63.0212 41.7753 62.7561 42.3721C62.6236 42.3058 62.4911 42.2395 62.3585 42.1732C62.0934 41.9742 61.8946 41.709 61.8946 41.4438C61.7621 41.0459 61.8284 40.7143 61.8946 40.3165ZM57.786 51.2577C57.8523 51.2577 57.8523 51.2577 57.9185 51.2577C57.8523 51.2577 57.8523 51.2577 57.786 51.2577ZM60.2379 46.4833C59.9729 46.8149 59.5753 47.1464 59.2439 47.4117C58.8463 47.6769 58.515 47.8095 58.1836 47.7432C57.6535 47.6106 57.4547 47.2791 57.4547 46.6823C57.4547 46.3507 57.5209 46.0192 57.5872 45.6876C57.6535 45.4224 57.7197 45.2234 57.786 44.9582C57.9185 44.4277 58.0511 44.0299 58.2499 43.632C58.3824 43.2341 58.515 42.9026 58.6475 42.6373C58.78 42.4384 58.9126 42.1732 59.0451 41.9742C59.1776 41.7753 59.3102 41.5764 59.4427 41.3775C59.5752 41.1785 59.7078 40.9796 59.8403 40.7807C60.1054 40.5154 60.2379 40.2502 60.3042 40.0512C60.2379 40.2502 60.2379 40.3828 60.1717 40.5154C60.1054 40.648 60.1054 40.847 60.1054 40.9796C60.1054 41.0459 60.1054 41.0459 60.1054 41.1122V41.1785V41.2448C60.1054 41.3111 60.1054 41.3775 60.1054 41.4438C60.1054 41.709 60.1054 41.9079 60.1717 42.1732C60.2379 42.3721 60.2379 42.571 60.3042 42.77C60.4367 43.1015 60.5693 43.4331 60.7018 43.632C60.8344 43.8972 61.0332 44.0299 61.232 44.2288C61.4308 44.4277 61.6296 44.5603 61.8284 44.693C61.8284 44.7593 61.7621 44.8256 61.6958 44.8919C61.497 45.1571 61.2982 45.4224 61.1657 45.6876C60.7018 46.0192 60.4367 46.2844 60.2379 46.4833ZM68.0576 38.5261C68.0576 38.5261 67.9913 38.5261 68.0576 38.5261C67.9913 38.5261 67.9913 38.5261 68.0576 38.5261C67.9913 38.5261 68.0576 38.5261 68.0576 38.5261ZM67.5275 47.9422C67.5937 47.9422 67.66 47.9422 67.7263 48.0085C67.66 48.0085 67.5937 48.0085 67.5275 47.9422ZM55.5329 39.1892C55.2015 38.8577 54.8039 38.725 54.3401 38.8577C53.8762 38.9903 53.5448 39.1229 53.346 39.2555C53.2135 39.3218 53.1472 39.3881 53.0147 39.5208C52.8822 39.5871 52.7496 39.7197 52.6833 39.786C52.2195 40.1176 51.7556 40.5154 51.358 40.9133C51.2254 41.0459 51.1592 41.1122 51.0266 41.1785C50.8941 41.3111 50.7616 41.4438 50.5628 41.5764C50.4302 41.709 50.2977 41.8416 50.1651 41.9742C49.7675 42.3721 49.3699 42.77 49.0386 43.3004C49.2374 42.9026 49.5025 42.4384 49.9001 41.9079C50.2977 41.3775 50.629 40.9133 50.8941 40.5817C51.0266 40.4491 51.0929 40.3165 51.0929 40.1839C51.0929 40.1839 51.0929 40.1839 51.0929 40.1176C51.0929 40.1176 51.0929 40.1176 51.0929 40.0512C51.0266 39.9186 50.8278 39.786 50.4965 39.786H50.364C50.2977 39.786 50.2977 39.786 50.2314 39.786C50.1652 39.786 50.1651 39.786 50.0989 39.786H50.0326C49.9001 39.786 49.8338 39.786 49.7013 39.786C49.4362 39.786 49.2374 39.786 49.0386 39.8523C48.7072 39.9186 48.3759 40.0512 48.1771 40.1839C47.912 40.3165 47.647 40.5154 47.4481 40.7144C47.1168 41.1122 46.7192 41.5101 46.4541 41.9742C46.1228 42.4384 45.8577 42.8363 45.5264 43.2341C45.195 43.632 44.93 44.0962 44.5986 44.5603C44.6649 44.3614 44.7311 44.1625 44.8637 43.9635C44.9299 43.7646 45.0625 43.5657 45.1288 43.3668C45.3276 42.8363 45.5264 42.3721 45.7914 41.9742C45.9902 41.5101 46.189 41.1785 46.3879 40.9133C46.5204 40.7144 46.5867 40.5154 46.5867 40.3165C46.5867 40.3165 46.5867 40.3165 46.5867 40.2502C46.5867 40.2502 46.5867 40.2502 46.5867 40.1839C46.5867 40.1839 46.5867 40.1839 46.5867 40.1176V40.0512C46.5867 40.0512 46.5867 40.0512 46.5867 39.9849C46.5867 39.9186 46.5867 39.9186 46.5204 39.8523C46.5204 39.786 46.4541 39.786 46.4541 39.7197C46.2553 39.3881 46.0565 39.1892 45.8577 39.0566C45.6589 38.924 45.5264 38.7914 45.3938 38.7914C45.2613 38.725 45.195 38.725 45.1288 38.6587C45.0625 38.6587 44.9962 38.5924 44.93 38.5924C44.7974 38.5261 44.5986 38.5261 44.3335 38.4598C44.2673 38.4598 44.2673 38.4598 44.201 38.4598C44.1347 38.4598 44.1347 38.4598 44.0685 38.4598C43.8697 38.4598 43.6709 38.5261 43.5383 38.725L43.472 38.7914C43.4058 38.8577 43.0744 39.3881 42.5443 40.3828L42.478 40.4491C41.9479 41.4438 41.3515 42.77 40.755 44.3614C40.755 44.4277 40.755 44.4277 40.755 44.494C40.755 44.5603 40.755 44.5603 40.755 44.6267C40.6888 44.8256 40.6225 45.0245 40.5562 45.2234C40.2912 45.4224 40.0261 45.6876 39.761 45.8865C39.2971 46.2181 38.767 46.616 38.1706 46.8812C37.5742 47.2127 36.9115 47.478 36.2488 47.6106C36.1825 47.6106 36.1825 47.6106 36.1163 47.6769C36.05 47.6769 36.05 47.6769 35.9837 47.6769C35.9175 47.6769 35.8512 47.6769 35.7849 47.6769C35.1885 47.7432 34.5921 47.7432 33.9957 47.6106C33.9294 47.6106 33.8631 47.6106 33.7969 47.5443C33.333 47.4117 33.0016 47.1464 32.8028 46.7486C32.6703 46.4833 32.6703 46.0855 32.6703 45.555C32.6703 45.2234 32.7366 44.8919 32.8691 44.494C33.0016 43.9635 33.1342 43.4331 33.3993 42.9026C33.6643 42.3721 33.9294 41.9742 34.1945 41.5764C34.4596 41.2448 34.7246 40.9796 34.9897 40.7807C35.1885 40.648 35.321 40.648 35.4536 40.648C35.5198 40.648 35.5198 40.7144 35.5198 40.7144C35.6524 40.9133 35.6524 41.1122 35.6524 41.4438C35.5861 41.709 35.5198 42.0406 35.3873 42.3721C35.3873 42.4384 35.3873 42.4384 35.321 42.5047C35.1885 42.77 35.056 43.0352 34.8572 43.3004C34.6584 43.5657 34.4596 43.7646 34.327 43.8972C34.0619 44.1625 33.8631 44.494 33.7306 44.7593C33.5981 45.0245 33.5981 45.2897 33.7306 45.555L33.7969 45.6213C33.9294 45.7539 34.0619 45.8865 34.327 45.8865C34.327 45.8865 34.327 45.8865 34.3933 45.8865C34.4596 45.8865 34.5258 45.8865 34.5258 45.8865C34.7246 45.8865 34.9234 45.8202 35.2548 45.7539C35.321 45.7539 35.321 45.7539 35.3873 45.6876C35.4536 45.6876 35.5198 45.6213 35.6524 45.6213C35.7849 45.555 35.8512 45.555 35.9837 45.4887C36.4476 45.2898 36.8452 44.8919 37.3091 44.4277C37.8392 43.8309 38.3031 43.1678 38.5682 42.4384C38.8995 41.709 39.0321 41.0459 39.0321 40.3828C39.0321 39.9186 38.8995 39.5208 38.5682 39.1892L38.5019 39.1229C38.4357 39.0566 38.3694 38.9903 38.2368 38.924L38.1706 38.8577C37.7067 38.5924 37.1766 38.3935 36.6464 38.3935C36.7127 38.3935 36.7127 38.3935 36.7789 38.3935C36.7127 38.3935 36.5801 38.3935 36.5139 38.3935C35.9175 38.3935 35.3873 38.5261 34.7909 38.7914C34.7246 38.7914 34.6584 38.8577 34.5921 38.8577C34.1282 39.1229 33.5981 39.3881 33.2005 39.786C32.6703 40.1839 32.2727 40.648 31.8751 41.1122C31.4775 41.6427 31.0799 42.1732 30.7485 42.77C30.5497 42.8363 30.3509 42.9026 30.2184 42.9026C29.887 42.9689 29.5557 42.9689 29.3569 42.9689C29.0918 42.9689 28.8267 42.9689 28.5617 42.9026C28.6279 42.6373 28.6942 42.3058 28.7605 41.9079C28.8267 41.5101 28.8267 41.1122 28.8267 40.648C28.8267 40.2502 28.7605 39.8523 28.6279 39.4545V39.3881C28.4954 38.9903 28.3629 38.5924 28.1641 38.3272C27.9653 38.1283 27.8327 37.9956 27.7002 37.9293C27.6339 37.863 27.6339 37.863 27.5676 37.7967C27.5014 37.7304 27.3688 37.6641 27.2363 37.6641H27.17C27.1038 37.6641 27.0375 37.6641 27.0375 37.5978C26.905 37.5978 26.7724 37.5315 26.5736 37.5315H26.176C25.9772 37.5315 25.7784 37.5978 25.6459 37.6641C25.5133 37.7304 25.3808 37.7967 25.2483 37.863C24.7844 38.1283 24.453 38.6587 24.188 39.3218C24.188 39.2555 24.188 39.1892 24.188 39.0566C24.188 38.9903 24.0554 38.8577 23.9229 38.7914C23.7904 38.6587 23.6578 38.5924 23.459 38.5924C23.3927 38.5924 23.3927 38.5924 23.3265 38.5924H23.3927C23.2602 38.5924 23.1277 38.6587 22.9951 38.725C22.6638 38.924 22.3987 39.1229 22.1336 39.3218C21.8686 39.5871 21.6035 39.9186 21.3384 40.1839C21.0734 40.4491 20.8745 40.7807 20.6095 41.0459C20.0131 41.8416 19.4829 42.8363 19.0853 43.8972C18.6877 44.9582 18.4226 46.0192 18.3563 47.0138C18.2901 48.0085 18.4226 48.8705 18.754 49.5999C19.0853 50.3293 19.748 50.7935 20.6757 50.9261C20.742 50.9261 20.742 50.9261 20.8083 50.9261H20.8745C21.0734 50.9261 21.2059 50.9261 21.4047 50.9261H21.3384C22.0674 50.9261 22.6638 50.7935 23.2602 50.5283C23.3265 50.5283 23.3265 50.4619 23.3927 50.4619C24.188 50.0641 24.8506 49.5336 25.4471 48.9368C26.0435 48.34 26.5074 47.6769 26.905 47.0138C27.3026 46.3507 27.5676 45.8202 27.7665 45.3561V45.2898C27.7665 45.2234 27.8327 45.1571 27.8327 45.0908C27.899 45.0245 27.899 44.8919 27.9653 44.8256L28.0978 44.6267C28.2303 44.693 28.3629 44.693 28.6279 44.693C29.0918 44.693 29.5557 44.6266 29.9533 44.494C29.8208 44.7593 29.7545 45.0245 29.6882 45.2898C29.5557 45.8202 29.4232 46.3507 29.3569 46.8812C29.2244 47.8758 29.3569 48.8042 29.7545 49.5999C30.0858 50.3956 30.8148 50.8598 31.9414 51.0587C32.0076 51.0587 32.0739 51.0587 32.2064 51.125C32.6703 51.1914 33.1342 51.2577 33.5318 51.2577C33.3993 51.2577 33.2667 51.2577 33.2005 51.2577C33.4655 51.2577 33.6643 51.2577 33.8631 51.2577C33.7969 51.2577 33.7306 51.2577 33.5981 51.2577C34.2607 51.2577 34.8572 51.1914 35.3873 50.9924H35.321C35.4536 50.9261 35.5861 50.9261 35.7187 50.8598C36.8452 50.4619 37.773 49.9315 38.5682 49.2684C39.3634 48.6053 40.0261 47.8758 40.5562 47.1464L40.6225 47.0801C40.6225 47.1464 40.6225 47.2127 40.6225 47.2791C40.6888 47.8095 40.8213 48.2737 41.0864 48.7379C41.3515 49.202 41.7491 49.6662 42.2129 50.0641C42.7431 50.4619 43.472 50.6609 44.3335 50.7935C44.3998 50.8598 44.3998 50.8598 44.4661 50.7935C44.5986 50.7272 44.7311 50.5946 44.7311 50.3956C44.7974 50.263 44.8637 50.0641 44.8637 49.9315C44.8637 49.7325 44.8637 49.401 44.93 49.0031C44.9962 48.6053 45.0625 48.1411 45.1288 47.6769C45.2613 47.2127 45.3938 46.6823 45.6589 46.1518C45.7914 45.8865 45.924 45.6213 46.0565 45.3561C46.2553 45.0908 46.4541 44.7593 46.6529 44.494C46.5204 44.7593 46.4541 45.0908 46.3216 45.3561C46.1891 45.6213 46.1228 45.9529 46.0565 46.1518C46.0565 46.2181 46.0565 46.2844 45.9902 46.2844C45.9902 46.3507 45.9902 46.3507 45.9902 46.417V46.4833C45.9902 46.5496 45.9902 46.616 45.9902 46.6823C45.9902 46.9475 45.9902 47.1464 45.9902 47.4117C46.0565 47.8095 46.189 48.1411 46.5204 48.2737C47.1168 48.6053 47.7132 48.8705 48.2434 48.9368C48.3759 48.9368 48.4422 48.9368 48.5747 48.9368C48.5084 48.9368 48.5084 48.9368 48.4422 48.9368C48.5747 48.9368 48.7072 48.9368 48.8398 48.9368H48.7735C49.0386 48.9368 49.1711 48.8705 49.2374 48.7379C49.3037 48.6053 49.3037 48.4063 49.3037 48.1411C49.3037 47.8095 49.3699 47.478 49.4362 47.0138C49.5025 46.5496 49.635 46.0855 49.9001 45.555C49.9001 45.4887 49.9663 45.4224 49.9663 45.3561C50.1651 44.8919 50.4302 44.4277 50.7616 43.9635H50.8278C50.7616 44.0299 50.7616 44.0299 50.7616 44.0962C50.5628 44.5603 50.4302 44.9582 50.2977 45.3561C49.9663 46.3507 49.7675 47.2127 49.7013 47.9422C49.7013 48.1411 49.7013 48.34 49.635 48.4726C49.635 48.6716 49.635 48.8042 49.635 49.0031C49.635 49.5336 49.635 49.9315 49.7013 50.263C49.7013 50.5283 49.8338 50.7272 50.0989 50.9924C50.5628 51.2577 50.9604 51.3903 51.4242 51.4566C51.4905 51.4566 51.5568 51.4566 51.5568 51.4566C51.6231 51.4566 51.6893 51.4566 51.6893 51.4566C51.8881 51.4566 52.0869 51.5229 52.2857 51.5229C52.2195 51.5229 52.1532 51.5229 52.0869 51.5229C52.1532 51.5229 52.2195 51.5229 52.2857 51.5229C52.352 51.5229 52.4183 51.5229 52.5508 51.5229C52.9484 51.5229 53.2798 51.4566 53.6111 51.3903C53.9424 51.324 54.2075 51.1914 54.4063 51.125C54.5389 51.0587 54.6051 50.9261 54.5389 50.7935C54.4726 50.6609 54.4726 50.5283 54.4063 50.3956C53.9424 49.7988 53.6774 48.9368 53.6774 47.9422C53.6774 47.0801 53.8099 46.2181 54.0087 45.2898C54.075 45.0908 54.075 44.9582 54.1412 44.7593C54.2738 44.494 54.3401 44.1625 54.4726 43.8972C54.6051 43.5657 54.7377 43.3004 54.8039 43.0352C55.069 42.4384 55.3341 41.9079 55.5992 41.4438C55.7317 41.1122 55.8642 40.7144 55.9968 40.2502C56.063 40.0512 55.9305 39.5871 55.5329 39.1892ZM25.5796 40.3165C25.6459 39.9186 25.8447 39.7197 26.176 39.6534C26.3748 39.6534 26.5736 39.786 26.6399 40.1176C26.6399 40.2502 26.7062 40.3828 26.7062 40.5154C26.7062 40.648 26.7062 40.847 26.7062 40.9796C26.7062 41.0459 26.7062 41.1122 26.7062 41.1122C26.7062 41.1785 26.7062 41.1785 26.7062 41.2448C26.7062 41.3111 26.7062 41.3775 26.7062 41.4438C26.7062 41.5101 26.7062 41.5101 26.7062 41.5764C26.7062 41.709 26.6399 41.7753 26.6399 41.9079C26.6399 41.9742 26.6399 41.9742 26.6399 42.0406C26.5736 42.1732 26.5736 42.3058 26.5074 42.3721C26.3748 42.3058 26.2423 42.2395 26.1097 42.1732C25.8447 41.9742 25.6459 41.709 25.6459 41.4438C25.5133 41.0459 25.5133 40.7143 25.5796 40.3165ZM23.0614 38.9903H23.1277C23.0614 38.9903 23.0614 38.9903 23.0614 38.9903ZM25.2483 44.8919C24.7181 45.6213 24.3205 46.2181 23.9229 46.4833C23.6578 46.8149 23.2602 47.1464 22.9289 47.4117C22.5313 47.6769 22.1999 47.8095 21.8686 47.7432H21.8023C21.3384 47.6106 21.1396 47.2791 21.2059 46.6823C21.2722 46.0855 21.3384 45.4887 21.5372 44.9582C21.6698 44.4277 21.8023 44.0299 22.0011 43.632C22.1336 43.2341 22.2662 42.9026 22.465 42.6373C22.5975 42.4384 22.7301 42.1732 22.8626 41.9742C22.9951 41.7753 23.1277 41.5764 23.2602 41.3775C23.3927 41.1785 23.5253 40.9796 23.6578 40.7807C23.9229 40.5154 24.0554 40.2502 24.1217 40.0512C24.0554 40.2502 24.0554 40.3828 23.9892 40.5154C23.9229 40.648 23.9229 40.847 23.9229 40.9796C23.9229 41.0459 23.9229 41.0459 23.9229 41.1122V41.1785V41.2448C23.9229 41.3111 23.9229 41.3775 23.9229 41.4438C23.9229 41.709 23.9229 41.9079 23.9892 42.1732C24.0554 42.3721 24.0554 42.571 24.1217 42.77C24.2542 43.1015 24.3868 43.4331 24.5193 43.632C24.6518 43.8972 24.8506 44.0299 25.0495 44.2288C25.2483 44.4277 25.4471 44.5603 25.6459 44.693C25.3808 44.693 25.3808 44.7593 25.2483 44.8919ZM53.8099 35.5422C53.8099 35.5422 53.7436 35.5422 53.8099 35.5422C53.7436 35.5422 53.8099 35.5422 53.8099 35.5422Z" fill="#141414"/>
<path d="M20.8083 30.1049C20.2781 29.3755 19.6154 28.7787 18.8865 28.3809C18.1575 27.983 17.3623 27.7178 16.5008 27.5852C15.7056 27.4525 14.9767 27.3862 14.314 27.3862C12.2597 27.3862 10.4704 27.6515 9.01251 28.182C7.55461 28.7124 6.36177 29.3092 5.43402 29.906C4.50626 30.5691 3.84358 31.0996 3.3797 31.6301C2.91582 32.1606 2.71702 32.4258 2.65075 32.4258C2.51821 32.691 2.45194 33.0889 2.45194 33.4205C2.45194 34.0172 2.58448 34.5477 2.78328 35.1445C3.04836 35.8076 3.31343 36.2718 3.64477 36.736C3.90985 37.2001 4.17492 37.5317 4.43999 37.7306C4.70507 37.9959 4.8376 38.1285 4.90387 38.1285C5.10268 38.1285 5.30148 37.9295 5.56655 37.5317C5.69909 37.3991 5.76536 37.2001 5.76536 36.9349C6.03043 35.9402 6.56058 35.0119 7.28953 34.0836C8.01848 33.1552 8.8137 32.3595 9.67519 31.6301C10.5367 30.9007 11.3982 30.3702 12.3259 29.9723C13.2537 29.5745 13.9826 29.3755 14.7116 29.3755C16.6334 29.3755 17.6274 30.1713 17.6274 31.829C17.6274 32.9563 17.3623 33.9509 16.7659 34.8793C16.2358 35.8076 15.5731 36.6033 14.9104 37.3328C14.2477 37.9959 13.585 38.5926 12.9886 38.9905C12.3922 39.3884 11.9946 39.6536 11.9283 39.7199C11.7295 39.6536 11.597 39.6536 11.3982 39.6536C11.1994 39.6536 11.0668 39.6536 10.868 39.6536C10.3379 39.6536 10.0065 39.7862 9.74146 40.0515C9.47639 40.3167 9.34385 40.5156 9.34385 40.7146C9.34385 41.2451 9.94026 41.444 11.1331 41.444H11.5307C11.6632 41.444 11.862 41.444 11.9946 41.3777C12.3922 41.5103 12.7235 41.9082 13.0549 42.5049C13.3862 43.1017 13.5188 43.8312 13.5188 44.6269C13.5188 45.29 13.3862 46.0857 13.0549 47.014C12.7235 47.9424 12.2597 48.7381 11.6632 49.5338C11.0668 50.3295 10.2716 50.9926 9.34385 51.4568C8.41609 51.9873 7.3558 52.1862 6.16297 52.0536C5.10268 51.9873 4.24119 51.5894 3.5785 50.9263C2.91582 50.2632 2.58448 49.4675 2.58448 48.4729V48.2076C2.58448 47.8761 2.45194 47.6108 2.18687 47.5445C1.9218 47.4782 1.59045 47.4782 1.32538 47.5445C0.99404 47.6108 0.662698 47.8098 0.397625 48.0087C0.132551 48.2739 -0.0662537 48.4729 -0.0662537 48.6718C-0.0662537 49.2686 1.46702e-05 49.7328 0.066283 50.0643C0.132551 50.2632 0.19882 50.4622 0.265088 50.6611C0.59643 51.4568 1.06031 52.1862 1.65672 52.7167C2.25314 53.2472 2.84955 53.7114 3.44597 53.9766C4.04238 54.3082 4.70507 54.5071 5.36775 54.5734C6.03043 54.706 6.62685 54.706 7.22326 54.706C8.68117 54.706 10.0728 54.5071 11.3982 54.0429C12.7235 53.5787 13.9164 52.9819 14.9104 52.1862C15.9044 51.3905 16.6996 50.4622 17.2298 49.3349C17.8262 48.2076 18.0913 47.014 18.0913 45.6878C18.0913 44.6932 17.8925 43.8311 17.4949 43.2344C17.0972 42.5713 16.6334 42.0408 16.1695 41.6429C15.7056 41.2451 15.2417 40.9798 14.7779 40.7809C14.314 40.6483 14.1152 40.5156 14.0489 40.5156C15.5731 40.1841 16.7659 39.6536 17.6937 39.0568C18.6214 38.46 19.3504 37.7969 19.8142 37.1338C20.4107 36.4044 20.8083 35.6087 21.0733 34.7467C21.2059 34.3488 21.2721 34.0172 21.2721 33.6857C21.3384 33.3541 21.3384 33.0889 21.3384 32.7574C21.6035 31.829 21.3384 30.8344 20.8083 30.1049ZM11.862 33.3541C11.7295 33.2878 11.6632 33.2878 11.5307 33.2878C11.0006 33.2878 10.5367 33.3541 10.2053 33.4205C9.874 33.4868 9.60892 33.6194 9.47639 33.6857C9.34385 33.8183 9.21131 33.9509 9.07878 34.0836C8.54863 34.614 8.08475 35.2771 7.48834 36.1392C6.95819 36.9349 6.42804 37.8632 5.96416 38.7916C5.50029 39.7199 5.03641 40.6483 4.6388 41.6429C4.24119 42.5713 3.90985 43.4333 3.64477 44.229C3.51224 44.4942 3.44597 44.8258 3.31343 45.1574C3.18089 45.4889 3.11463 45.8205 3.04836 46.0857C2.98209 46.4172 2.98209 46.6162 2.91582 46.8151C2.91582 47.014 2.91582 47.1467 2.98209 47.1467L3.31343 47.4782C3.5785 47.8098 4.04238 48.1413 4.57253 48.3402C5.10268 48.5392 5.50029 48.6055 5.83163 48.6055C6.03043 48.6055 6.16297 48.4065 6.36177 48.075C6.56058 47.7434 6.69312 47.2793 6.82565 46.8151C6.95819 46.3509 7.09073 45.8868 7.22326 45.4226C7.3558 44.9584 7.42207 44.6269 7.42207 44.4942C8.08475 42.4386 8.68117 40.7146 9.21131 39.3884C9.74146 38.0622 10.2716 37.0012 10.6692 36.2718C11.0668 35.4761 11.3982 34.9456 11.6632 34.5477C11.9283 34.2162 12.0609 33.9509 12.0609 33.752C12.0609 33.5531 11.9946 33.4205 11.862 33.3541Z" fill="#141414"/>
<path d="M31.8088 42.7701C31.6763 42.7038 31.5437 42.7701 31.2787 42.8364C31.0799 42.9028 30.8811 42.9691 30.7485 43.0354C30.5497 43.1017 30.3509 43.168 30.2184 43.168C29.887 43.2343 29.5557 43.2343 29.3569 43.2343C29.0918 43.2343 28.8267 43.2343 28.5617 43.168C28.6279 42.9028 28.6942 42.5712 28.7605 42.1733C28.8267 41.7755 28.8267 41.3776 28.8267 40.9135C28.8267 40.5156 28.7605 40.1177 28.6279 39.7199V39.6536C28.4954 39.2557 28.3629 38.8578 28.1641 38.5926C27.9653 38.3937 27.8327 38.261 27.7002 38.1947C27.6339 38.1284 27.6339 38.1284 27.5676 38.0621C27.5014 37.9958 27.3688 37.9295 27.2363 37.9295H27.17C27.1038 37.9295 27.0375 37.9295 27.0375 37.8632C26.905 37.8632 26.7724 37.7969 26.5736 37.7969H26.176C25.9772 37.7969 25.7784 37.8632 25.6459 37.9295C25.5133 37.9958 25.3808 38.0621 25.2483 38.1284C24.7844 38.3937 24.453 38.9241 24.188 39.5872C24.188 39.5209 24.188 39.4546 24.188 39.322C24.188 39.2557 24.0554 39.1231 23.9229 39.0568C23.7904 38.9241 23.6578 38.8578 23.459 38.8578C23.459 38.8578 23.459 38.8578 23.3927 38.8578C23.2602 38.8578 23.1277 38.9241 22.9951 38.9905C22.6638 39.1894 22.3987 39.3883 22.1336 39.5872C21.8686 39.8525 21.6035 40.184 21.3384 40.4493C21.0734 40.7145 20.8745 41.0461 20.6095 41.3113C20.0131 42.107 19.4829 43.1017 19.0853 44.1626C18.6877 45.2236 18.4226 46.2846 18.3563 47.2792C18.2901 48.2739 18.4226 49.1359 18.754 49.8653C19.0853 50.5947 19.748 51.0589 20.6757 51.1915C20.742 51.1915 20.742 51.1915 20.8083 51.1915H20.8745C21.0071 51.1915 21.2059 51.1915 21.3384 51.1915C22.0674 51.1915 22.6638 51.0589 23.2602 50.7937C23.3265 50.7937 23.3265 50.7274 23.3927 50.7274C24.188 50.3295 24.8506 49.799 25.4471 49.2022C26.0435 48.6054 26.5074 47.9423 26.905 47.2792C27.3026 46.6161 27.5676 46.0856 27.7665 45.6215V45.5552C27.7665 45.4889 27.8327 45.4225 27.8327 45.3562C27.899 45.2899 27.899 45.1573 27.9653 45.091L28.0978 44.8921C28.2303 44.9584 28.3629 44.9584 28.6279 44.9584C29.0918 44.9584 29.5557 44.8921 29.9533 44.7594C30.0858 44.6931 30.2846 44.6931 30.4172 44.6268C30.9473 44.4279 31.3449 44.229 31.7426 43.8974C31.9414 43.6985 32.0076 43.4995 32.0076 43.2343C31.9414 43.0354 31.8751 42.8364 31.8088 42.7701ZM25.5796 40.3167C25.6459 39.9188 25.8447 39.7199 26.176 39.6536C26.3748 39.6536 26.5736 39.7862 26.6399 40.1177C26.6399 40.2504 26.7062 40.383 26.7062 40.5156C26.7062 40.6482 26.7062 40.8471 26.7062 40.9798C26.7062 41.0461 26.7062 41.1124 26.7062 41.1124C26.7062 41.1787 26.7062 41.1787 26.7062 41.245C26.7062 41.3113 26.7062 41.3776 26.7062 41.4439C26.7062 41.5102 26.7062 41.5102 26.7062 41.5766C26.7062 41.7092 26.6399 41.7755 26.6399 41.9081C26.6399 41.9744 26.6399 41.9744 26.6399 42.0407C26.5736 42.1733 26.5736 42.306 26.5074 42.3723C26.3748 42.306 26.2423 42.2397 26.1097 42.1733C25.8447 41.9744 25.6459 41.7092 25.6459 41.4439C25.5133 41.0461 25.5133 40.7145 25.5796 40.3167ZM25.2483 44.8921C24.7181 45.6215 24.3205 46.2183 23.9229 46.4835C23.6578 46.8151 23.2602 47.1466 22.9289 47.4118C22.5313 47.6771 22.1999 47.8097 21.8686 47.7434H21.8023C21.3384 47.6108 21.1396 47.2792 21.2059 46.6824C21.2722 46.0856 21.3384 45.4889 21.5372 44.9584C21.6698 44.4279 21.8023 44.03 22.0011 43.6322C22.1336 43.2343 22.2662 42.9028 22.465 42.6375C22.5975 42.4386 22.7301 42.1733 22.8626 41.9744C22.9951 41.7755 23.1277 41.5766 23.2602 41.3776C23.3927 41.1787 23.5253 40.9798 23.6578 40.7808C23.9229 40.5156 24.0554 40.2504 24.1217 40.0514C24.0554 40.2504 24.0554 40.383 23.9892 40.5156C23.9229 40.6482 23.9229 40.8471 23.9229 40.9798C23.9229 41.0461 23.9229 41.0461 23.9229 41.1124V41.1787V41.245C23.9229 41.3113 23.9229 41.3776 23.9229 41.4439C23.9229 41.7092 23.9229 41.9081 23.9892 42.1733C24.0554 42.3723 24.0554 42.5712 24.1217 42.7701C24.2542 43.1017 24.3868 43.4332 24.5193 43.6322C24.6518 43.8974 24.8506 44.03 25.0494 44.229C25.2483 44.4279 25.4471 44.5605 25.6459 44.6931C25.3808 44.6931 25.3808 44.7594 25.2483 44.8921Z" fill="#141414"/>
<path d="M41.5503 44.8255C41.4177 44.7592 41.3515 44.7592 41.2189 44.7592C41.0864 44.8255 41.0201 44.8255 40.9538 44.8919C40.8876 44.9582 40.755 45.0908 40.6225 45.1571C40.3574 45.356 40.0924 45.6213 39.8273 45.8202C39.3634 46.1517 38.8333 46.5496 38.2368 46.8148C37.6404 47.1464 36.9777 47.4116 36.3151 47.5443C36.2488 47.5443 36.2488 47.5443 36.1825 47.6106C36.1163 47.6106 36.1163 47.6106 36.05 47.6106C35.9837 47.6106 35.9175 47.6106 35.8512 47.6106C35.2548 47.6769 34.6584 47.6769 34.0619 47.5443C33.9957 47.5443 33.9294 47.5443 33.8631 47.4779C33.3993 47.3453 33.0679 47.0801 32.8691 46.6822C32.7366 46.417 32.7366 46.0191 32.7366 45.4886C32.7366 45.1571 32.8028 44.8255 32.9354 44.4277C33.0679 43.8972 33.2005 43.3667 33.4655 42.8362C33.7306 42.3058 33.9957 41.9079 34.2607 41.51C34.5258 41.1785 34.7909 40.9132 35.056 40.7143C35.2548 40.5817 35.3873 40.5817 35.5198 40.5817C35.5861 40.5817 35.5861 40.648 35.5861 40.648C35.7187 40.8469 35.7187 41.0459 35.7187 41.3774C35.6524 41.6427 35.5861 41.9742 35.4536 42.3058C35.4536 42.3721 35.4536 42.3721 35.3873 42.4384C35.2548 42.7036 35.1222 42.9689 34.9234 43.2341C34.7246 43.4993 34.5258 43.6983 34.3933 43.8309C34.1282 44.0961 33.9294 44.4277 33.7969 44.6929C33.6643 44.9582 33.6643 45.2234 33.7969 45.4886L33.8631 45.555C33.9957 45.6876 34.1282 45.8202 34.3933 45.8202C34.3933 45.8202 34.3933 45.8202 34.4596 45.8202C34.5258 45.8202 34.5258 45.8202 34.5921 45.8202C34.7909 45.8202 34.9897 45.7539 35.321 45.6876C35.3873 45.6876 35.3873 45.6876 35.4536 45.6213C35.5198 45.6213 35.5861 45.555 35.7187 45.555C35.8512 45.4886 35.9175 45.4886 36.05 45.4223C36.5139 45.2234 36.9115 44.8255 37.3754 44.3614C37.9055 43.7646 38.3694 43.1015 38.6345 42.3721C38.9658 41.6427 39.0983 40.9796 39.0983 40.3165C39.0983 39.8523 38.9658 39.4544 38.6345 39.1229L38.5682 39.0566C38.5019 38.9903 38.4357 38.9239 38.3031 38.8576L38.2368 38.7913C37.773 38.5261 37.2428 38.3271 36.7127 38.3271C36.6464 38.3271 36.6464 38.3271 36.5801 38.3271C35.9837 38.3271 35.4536 38.4598 34.8572 38.725C34.7909 38.725 34.7246 38.7913 34.6584 38.7913C34.1945 39.0566 33.6643 39.3218 33.2667 39.7197C32.7366 40.1175 32.339 40.5817 31.9414 41.0459C31.5437 41.5763 31.1461 42.1068 30.8148 42.7036C30.616 43.0352 30.4172 43.433 30.2184 43.8309C30.0858 44.0961 30.0196 44.2951 29.887 44.5603C29.7545 44.8255 29.6882 45.0908 29.622 45.356C29.4894 45.8865 29.3569 46.417 29.2906 46.9475C29.1581 47.9421 29.2906 48.8705 29.6882 49.6662C30.0196 50.4619 30.7485 50.9261 31.8751 51.125C31.9414 51.125 32.0076 51.125 32.1402 51.1913C32.604 51.2576 33.0679 51.3239 33.4655 51.3239H33.5318C34.1945 51.3239 34.7909 51.2576 35.321 51.0587H35.3873C35.4536 51.0587 35.5198 50.9924 35.5861 50.9924C36.7127 50.5945 37.6404 50.064 38.4357 49.4009C39.2309 48.7378 39.8936 48.0084 40.4237 47.279L40.49 47.2127C40.9538 46.5496 41.3515 45.9528 41.5503 45.555C41.7491 45.356 41.7491 45.0245 41.5503 44.8255Z" fill="#141414"/>
<path d="M55.5329 39.1894C55.2015 38.8578 54.8039 38.7252 54.34 38.8578C53.8762 38.9904 53.5448 39.1231 53.346 39.2557C53.2135 39.322 53.1472 39.3883 53.0147 39.5209C52.8821 39.5872 52.7496 39.7199 52.6833 39.7862C52.2195 40.1177 51.7556 40.5156 51.358 40.9134C51.2254 41.0461 51.1592 41.1124 51.0266 41.1787C50.8941 41.3113 50.7616 41.4439 50.5628 41.5765C50.4302 41.7092 50.2977 41.8418 50.1651 41.9744C49.7675 42.3723 49.3699 42.7701 49.0386 43.3006C49.2374 42.9027 49.5025 42.4386 49.9001 41.9081C50.2977 41.3776 50.629 40.9134 50.8941 40.5819C51.0266 40.4493 51.0929 40.3166 51.0929 40.184C51.0929 40.184 51.0929 40.184 51.0929 40.1177C51.0929 40.1177 51.0929 40.1177 51.0929 40.0514C51.0266 39.9188 50.8278 39.7862 50.4965 39.7862H50.3639C50.2977 39.7862 50.2977 39.7862 50.2314 39.7862C50.1651 39.7862 50.1651 39.7862 50.0989 39.7862H50.0326C49.9663 39.7862 49.8338 39.7862 49.7675 39.7862C49.5025 39.7862 49.3036 39.7862 49.1048 39.8525C48.7735 39.9188 48.4422 40.0514 48.2434 40.184C47.9783 40.3166 47.7132 40.5156 47.5144 40.7145C47.1831 41.1124 46.7855 41.5102 46.5204 41.9744C46.189 42.4386 45.924 42.8364 45.5926 43.2343C45.2613 43.6322 44.9962 44.0963 44.6649 44.5605C44.7311 44.3616 44.7974 44.1626 44.9299 43.9637C44.9962 43.7648 45.1287 43.5658 45.195 43.3669C45.3938 42.8364 45.5926 42.3723 45.8577 41.9744C46.0565 41.5102 46.2553 41.1787 46.4541 40.9134C46.5866 40.7145 46.6529 40.5156 46.6529 40.3166C46.6529 40.3166 46.6529 40.3166 46.6529 40.2503C46.6529 40.2503 46.6529 40.2503 46.6529 40.184C46.6529 40.184 46.6529 40.184 46.6529 40.1177V40.0514C46.6529 40.0514 46.6529 40.0514 46.6529 39.9851C46.6529 39.9188 46.6529 39.9188 46.5867 39.8525C46.5867 39.7862 46.5204 39.7862 46.5204 39.7199C46.3216 39.3883 46.1228 39.1894 45.924 39.0568C45.7252 38.9241 45.5926 38.7915 45.4601 38.7915C45.3276 38.7252 45.2613 38.7252 45.195 38.6589C45.1287 38.6589 45.0625 38.5926 44.9962 38.5926C44.8637 38.5263 44.6649 38.5263 44.3998 38.46C44.3335 38.46 44.3335 38.46 44.2673 38.46C44.2673 38.46 44.2673 38.46 44.201 38.46H44.1347C43.9359 38.46 43.7371 38.5263 43.6046 38.7252L43.5383 38.7915C43.472 38.8578 43.1407 39.3883 42.6106 40.383L42.5443 40.4493C42.0141 41.4439 41.4177 42.7701 40.8213 44.3616C40.8213 44.4279 40.8213 44.4279 40.8213 44.4942C40.8213 44.5605 40.8213 44.5605 40.8213 44.6268C40.755 44.8257 40.6888 45.0247 40.6225 45.2236V45.2899C40.5562 45.5551 40.49 45.8867 40.49 46.2846C40.49 46.6161 40.4237 47.014 40.49 47.4118C40.49 47.4781 40.49 47.5445 40.49 47.6108C40.5562 48.1412 40.6888 48.6054 40.9538 49.0696C41.2189 49.5338 41.6165 49.9979 42.0804 50.3958C42.6106 50.7936 43.3395 50.9926 44.201 51.1252C44.2673 51.1915 44.2673 51.1915 44.3335 51.1252C44.4661 51.0589 44.5986 50.9263 44.5986 50.7273C44.6649 50.5947 44.7311 50.3958 44.7311 50.2632C44.7311 50.0642 44.7311 49.7327 44.7974 49.3348C44.8637 48.937 44.9299 48.4728 44.9962 48.0086C45.1287 47.5445 45.2613 47.014 45.5264 46.4835C45.6589 46.2182 45.7914 45.953 45.924 45.6878C46.1228 45.4225 46.3216 45.091 46.5204 44.8257C46.3878 45.091 46.3216 45.4225 46.189 45.6878C46.0565 45.953 45.9902 46.2846 45.924 46.4835C45.924 46.5498 45.924 46.6161 45.8577 46.6161C45.8577 46.6824 45.8577 46.6824 45.8577 46.7487V46.815C45.8577 46.8813 45.8577 46.9477 45.8577 47.014C45.8577 47.2792 45.8577 47.4781 45.8577 47.7434C45.924 48.1412 46.0565 48.4728 46.3878 48.6054C46.9843 48.937 47.5807 49.2022 48.1108 49.2685C48.2434 49.2685 48.3096 49.2685 48.4422 49.2685C48.4422 49.2685 48.4422 49.2685 48.5084 49.2685C48.5747 49.2685 48.5747 49.2685 48.5747 49.2685C48.8398 49.2685 48.9723 49.2022 49.0386 49.0696C49.1048 48.937 49.1048 48.738 49.1048 48.4728C49.1048 48.1412 49.1711 47.8097 49.2374 47.3455C49.3037 46.8814 49.4362 46.4172 49.7013 45.8867C49.7013 45.8204 49.7675 45.7541 49.7675 45.6878C49.9663 45.2236 50.2314 44.7594 50.5628 44.2953H50.629C50.5627 44.3616 50.5628 44.3616 50.5628 44.4279C50.3639 44.892 50.2314 45.2899 50.0989 45.6878C49.7675 46.6824 49.5687 47.5445 49.5025 48.2739C49.5025 48.4728 49.5025 48.6717 49.4362 48.8043C49.4362 49.0033 49.4362 49.1359 49.4362 49.3348C49.4362 49.8653 49.4362 50.2632 49.5025 50.5947C49.5025 50.86 49.635 51.0589 49.9001 51.3241C50.3639 51.5894 50.7616 51.722 51.2254 51.7883C51.2917 51.7883 51.358 51.7883 51.358 51.7883C51.4242 51.7883 51.4905 51.7883 51.4905 51.7883C51.6893 51.7883 51.8881 51.8546 52.0869 51.8546H52.1532C52.2195 51.8546 52.2857 51.8546 52.4183 51.8546C52.8159 51.8546 53.1472 51.7883 53.4786 51.722C53.8099 51.6557 54.075 51.5231 54.2738 51.4567C54.4063 51.3904 54.4726 51.2578 54.4063 51.1252C54.34 50.9926 54.34 50.86 54.2738 50.7273C53.8099 50.1305 53.5448 49.2685 53.5448 48.2739C53.5448 47.4118 53.6774 46.5498 53.8762 45.6215C53.9424 45.4225 53.9424 45.2899 54.0087 45.091C54.1412 44.8257 54.2075 44.4942 54.34 44.2289C54.4726 43.8974 54.6051 43.6322 54.6714 43.3669C54.9365 42.7701 55.2015 42.2396 55.4666 41.7755C55.5991 41.4439 55.7317 41.0461 55.8642 40.5819C56.063 40.0514 55.9305 39.5872 55.5329 39.1894Z" fill="#141414"/>
<path d="M68.1238 42.7701C67.9913 42.7038 67.8588 42.7701 67.5937 42.8364C67.1961 43.0354 66.7985 43.1017 66.4671 43.168C66.2021 43.2343 65.937 43.2343 65.6719 43.2343C65.6057 43.2343 65.6057 43.2343 65.5394 43.2343C65.2743 43.2343 65.0092 43.2343 64.7442 43.168C64.8104 42.9028 64.8767 42.5712 64.943 42.1733C65.0092 41.7755 65.0092 41.3776 65.0092 40.9135C65.0092 40.5156 64.943 40.0514 64.8104 39.6536C64.6779 39.2557 64.5454 38.8578 64.3466 38.5926C64.1477 38.3937 64.0152 38.261 63.8827 38.1947C63.8164 38.1284 63.8164 38.1284 63.7501 38.0621C63.6839 37.9958 63.5513 37.9295 63.4188 37.9295H63.3525C63.2863 37.9295 63.22 37.9295 63.22 37.8632C63.0875 37.8632 62.9549 37.7969 62.7561 37.7969H62.3585C62.1597 37.7969 61.9609 37.8632 61.8284 37.9295C61.2319 38.1947 60.7018 38.7252 60.3705 39.5873C60.3705 39.5209 60.3705 39.4546 60.3705 39.322C60.3705 39.2557 60.2379 39.1231 60.1054 39.0568C59.9728 38.9241 59.8403 38.8578 59.6415 38.8578C59.6415 38.8578 59.6415 38.8578 59.5752 38.8578C59.4427 38.8578 59.3102 38.9241 59.1776 38.9905C58.8463 39.1894 58.5812 39.3883 58.3161 39.5873C58.0511 39.8525 57.786 40.184 57.5209 40.4493C57.2558 40.7145 57.057 41.0461 56.792 41.3113C56.1955 42.107 55.6654 43.1017 55.2678 44.1627C55.069 44.6268 54.9365 45.1573 54.8039 45.6215C54.6714 46.2183 54.5388 46.7488 54.5388 47.2792C54.4726 48.2739 54.6051 49.1359 54.9365 49.8653C55.2678 50.5947 55.9305 51.0589 56.8582 51.1915C57.786 51.3241 58.6475 51.1915 59.4427 50.7937C59.4427 50.7937 59.509 50.7937 59.509 50.7274H59.5752C60.3705 50.3295 61.0331 49.799 61.6296 49.2022C62.226 48.6054 62.6898 47.9423 63.0875 47.2792C63.4851 46.6161 63.7501 46.0856 63.9489 45.6215V45.5552C63.9489 45.4889 64.0152 45.4225 64.0152 45.3562C64.0815 45.2899 64.0815 45.1573 64.1478 45.091L64.2803 44.8921C64.4128 44.9584 64.5454 44.9584 64.8104 44.9584C64.8767 44.9584 64.943 44.9584 64.943 44.9584C65.1418 44.9584 65.3406 44.9584 65.5394 44.8921H65.6057C65.937 44.8258 66.2683 44.7594 66.5997 44.6268C67.1298 44.4279 67.5274 44.229 67.925 43.8974C68.1238 43.6985 68.1901 43.4995 68.1901 43.2343C68.2564 43.0354 68.1901 42.8364 68.1238 42.7701ZM61.8946 40.3167C61.9609 39.9188 62.1597 39.7199 62.491 39.6536C62.6898 39.6536 62.8887 39.7862 62.9549 40.1177C62.9549 40.2504 63.0212 40.383 63.0212 40.5156C63.0875 41.1124 63.0212 41.7755 62.7561 42.3723C62.6236 42.306 62.491 42.2397 62.3585 42.1733C62.0934 41.9744 61.8946 41.7092 61.8946 41.4439C61.7621 41.0461 61.8284 40.7145 61.8946 40.3167ZM60.2379 46.4835C59.9728 46.8151 59.5752 47.1466 59.2439 47.4118C58.8463 47.6771 58.5149 47.8097 58.1836 47.7434C57.6535 47.6108 57.4546 47.2792 57.4546 46.6824C57.4546 46.3509 57.5209 46.0193 57.5872 45.6878C57.6535 45.4225 57.7197 45.2236 57.786 44.9584C57.9185 44.4279 58.0511 44.03 58.2499 43.6322C58.3824 43.2343 58.5149 42.9028 58.6475 42.6375C58.78 42.4386 58.9126 42.1733 59.0451 41.9744C59.1776 41.7755 59.3102 41.5766 59.4427 41.3776C59.5752 41.1787 59.7078 40.9798 59.8403 40.7808C60.1054 40.5156 60.2379 40.2504 60.3042 40.0514C60.2379 40.2504 60.2379 40.383 60.1717 40.5156C60.1054 40.6482 60.1054 40.8471 60.1054 40.9798C60.1054 41.0461 60.1054 41.0461 60.1054 41.1124V41.1787V41.245C60.1054 41.3113 60.1054 41.3776 60.1054 41.4439C60.1054 41.7092 60.1054 41.9081 60.1717 42.1733C60.2379 42.3723 60.2379 42.5712 60.3042 42.7701C60.4367 43.1017 60.5693 43.4332 60.7018 43.6322C60.8343 43.8974 61.0331 44.03 61.2319 44.229C61.4307 44.4279 61.6296 44.5605 61.8284 44.6931C61.8284 44.7594 61.7621 44.8258 61.6958 44.8921C61.497 45.1573 61.2982 45.4225 61.1657 45.6878C60.7018 46.0193 60.4367 46.2846 60.2379 46.4835Z" fill="#141414"/>
<path d="M77.799 39.8523C77.799 39.8523 77.7328 39.786 77.799 39.8523L77.7328 39.7197L77.4014 39.2555L77.2689 39.1892C77.2026 39.1892 77.2026 39.1892 77.2026 39.1229C77.0038 38.9239 76.8713 38.8576 76.7387 38.7913C76.6725 38.7913 76.6725 38.7913 76.6062 38.725C76.5399 38.725 76.4737 38.6587 76.4074 38.6587H76.3411C76.2086 38.6587 76.1423 38.6587 76.0098 38.6587C75.7447 38.7913 75.5459 38.9239 75.5459 38.9903C75.082 39.3881 74.7507 39.8523 74.3531 40.3165C73.6904 41.1122 73.1603 41.7753 72.7626 42.3721C72.2325 42.9689 71.8349 43.433 71.4373 43.7646C71.0397 44.0961 70.7746 44.3614 70.5095 44.4277C70.4433 44.494 70.4433 44.494 70.377 44.494C70.1119 44.4277 69.9794 44.2951 69.9131 44.0298C69.8468 43.7646 69.7806 43.433 69.8468 43.1015C69.8468 42.7699 69.9131 42.3058 70.1119 41.8416C70.3107 41.4437 70.4433 41.1122 70.6421 40.8469C70.7746 40.5817 70.8409 40.3165 70.7746 40.1175C70.7746 40.1175 70.7746 40.1175 70.7746 40.0512C70.7746 40.0512 70.7746 40.0512 70.7746 39.9849C70.7746 39.9186 70.7083 39.8523 70.7083 39.786C70.7083 39.7197 70.6421 39.7197 70.6421 39.6534C70.5758 39.587 70.5758 39.5207 70.5095 39.4544C70.5095 39.4544 70.5095 39.3881 70.4433 39.3881C70.4433 39.3218 70.377 39.3218 70.377 39.3218C70.2444 39.1892 70.1782 39.0566 70.0456 38.9903C69.7806 38.7913 69.5155 38.6587 69.3167 38.5261C69.1842 38.4598 68.9854 38.3935 68.5877 38.3271C68.5215 38.3271 68.5215 38.3271 68.4552 38.3271C68.4552 38.3271 68.4552 38.3271 68.3889 38.3271H68.3227C68.0576 38.3271 67.8588 38.4598 67.7263 38.6587C67.66 38.725 67.3286 39.2555 66.7985 40.2501C66.666 40.4491 66.5334 40.648 66.4009 40.9132C66.2021 41.3111 66.0033 41.709 65.937 42.0405C65.8045 42.4384 65.7382 42.8362 65.6719 43.1678C65.5394 43.7646 65.5394 44.3614 65.5394 44.8919C65.5394 44.8919 65.5394 44.8919 65.5394 44.9582C65.5394 45.2234 65.5394 45.4223 65.6057 45.6213C65.6057 45.6876 65.6719 45.8202 65.6719 45.8865C65.7382 46.1517 65.8045 46.417 65.937 46.6159C66.4009 47.5443 67.1961 48.0084 68.3889 48.0084C68.4552 48.0084 68.5215 48.0084 68.5877 48.0084C68.654 48.0084 68.7203 48.0084 68.7865 48.0084C68.9854 48.0084 69.1179 47.9421 69.3167 47.8758C69.383 47.8758 69.4492 47.8758 69.5155 47.8095C69.5818 47.8095 69.5818 47.8095 69.648 47.7432H69.7143C69.7143 47.7432 69.7143 47.7432 69.7806 47.7432C69.7806 47.7432 69.8468 47.7432 69.8468 47.6769C69.8468 47.6769 69.9131 47.6769 69.9131 47.6106C69.9794 47.5443 70.0456 47.478 70.1782 47.4116C70.377 47.279 70.5758 47.0801 70.7083 46.9475C70.8409 46.8149 70.9071 46.7485 71.0397 46.6159C71.1059 46.5496 71.1722 46.4833 71.1722 46.417C71.2385 46.3507 71.3047 46.2181 71.4373 46.1517C71.5698 46.0191 71.7024 45.8202 71.8349 45.6213C71.8349 45.555 71.9012 45.555 71.9012 45.4886C72.1662 45.1571 72.4313 44.7592 72.6301 44.3614C72.6301 44.494 72.6301 44.5603 72.5638 44.5603C72.4313 44.8919 72.365 45.2234 72.2325 45.555C71.9674 46.4833 71.7686 47.3453 71.7024 48.0747C71.6361 49.1357 71.6361 49.8651 71.7024 50.3956C71.7686 50.4619 71.7686 50.5945 71.8349 50.7271C71.9012 50.8598 71.9674 50.9924 72.1662 51.125C72.6301 51.3902 73.0277 51.5229 73.4916 51.5892C73.9555 51.6555 74.2868 51.7218 74.6844 51.7218C75.082 51.6555 75.4134 51.6555 75.6785 51.5892C76.0098 51.4566 76.2749 51.3903 76.4737 51.3239C76.6725 51.2576 76.7387 51.125 76.6062 50.9924L76.4737 50.5945C76.0098 49.9977 75.7447 49.202 75.7447 48.1411C75.7447 47.279 75.8773 46.417 76.0761 45.555C76.1423 45.356 76.1423 45.2234 76.2086 45.0245L76.5399 43.8972L77.2689 41.6427C77.4677 41.3111 77.6002 41.0459 77.7328 40.7806C77.9316 40.5817 77.9316 40.2501 77.799 39.8523Z" fill="#141414"/>
<path d="M90.5888 39.72C90.39 39.3884 90.1912 39.1895 89.9924 39.0569C89.7936 38.9242 89.6611 38.7916 89.5285 38.7916L89.2635 38.659C89.2635 38.659 89.2635 38.659 89.1972 38.659H89.1309H89.0646C88.9321 38.5927 88.7996 38.5927 88.6008 38.5264C88.5345 38.5264 88.5345 38.5264 88.4682 38.5264C88.402 38.5264 88.402 38.5264 88.3357 38.5264C88.2694 38.5264 88.2694 38.5264 88.2032 38.5264C88.0044 38.5264 87.8056 38.5927 87.673 38.7916L87.6067 38.8579C87.5405 38.9242 87.2091 39.4547 86.6127 40.4494C86.0826 41.3114 85.6187 42.505 85.0223 43.9638H84.6909C83.6306 43.8975 82.7029 43.8312 81.9077 43.7649C82.1065 43.1681 82.3053 42.7702 82.4378 42.4387C82.4378 42.3724 82.5041 42.306 82.5041 42.2397C82.5041 42.1734 82.5704 42.1071 82.5704 42.1071C82.6366 42.0408 82.6366 41.9745 82.6366 41.9082C82.7692 41.6429 82.9017 41.3114 83.0342 41.0462C83.2993 40.6483 83.2993 40.2504 83.1005 39.9189C82.9017 39.5873 82.7029 39.3884 82.5704 39.2558C82.3715 39.1232 82.239 38.9905 82.1065 38.9905C81.9739 38.9242 81.9077 38.9242 81.8414 38.8579C81.7089 38.7916 81.5101 38.7253 81.1125 38.659C81.0462 38.659 81.0462 38.659 80.9799 38.659H80.9136H80.8474C80.5823 38.659 80.3835 38.7916 80.251 38.9905C79.7871 39.7863 79.4557 40.582 79.0581 41.3114C78.7268 42.0408 78.3954 42.7039 78.1304 43.4333C77.8653 44.1627 77.6002 44.8921 77.4014 45.6216C77.4014 45.6879 77.3352 45.8205 77.3352 45.8868C77.1363 46.5499 77.0038 47.3456 76.8713 48.1413C76.805 48.5392 76.8713 48.9371 76.9375 49.2686C77.0038 49.6002 77.1363 49.9317 77.3352 50.197C77.534 50.4622 77.7328 50.7274 77.9978 50.9264C78.2629 51.1253 78.8593 51.2579 79.7208 51.3905C79.7871 51.4568 79.7871 51.4568 79.8534 51.3905C79.9859 51.3242 80.0522 51.1916 80.1847 50.9927C80.251 50.9264 80.251 50.7274 80.251 50.5285V50.3959C80.516 49.0697 80.7148 47.9424 80.9799 47.0141C81.1787 47.0141 81.4438 47.0141 81.7089 46.9478C82.5041 46.8151 83.3656 46.6825 84.1608 46.4836C83.962 47.213 83.8295 47.9424 83.6969 48.5392C83.6306 49.6002 83.6306 50.3296 83.6969 50.8601C83.7632 50.9264 83.7632 51.059 83.8295 51.1916C83.8957 51.3242 83.962 51.4568 84.1608 51.5895C84.6247 51.8547 85.0223 51.9873 85.4862 52.0536C85.95 52.1199 86.2814 52.1863 86.679 52.1863C87.0766 52.1199 87.4079 52.1199 87.673 52.0536C88.0044 51.921 88.2694 51.8547 88.4682 51.7884C88.667 51.7221 88.7333 51.5895 88.6008 51.4568L88.4682 51.059C88.0044 50.4622 87.7393 49.6665 87.7393 48.6055C87.7393 47.5446 87.9381 46.4836 88.2694 45.4226L88.6008 44.5606C88.7333 44.229 88.8658 43.9638 88.9984 43.6323C89.0647 43.4996 89.1309 43.367 89.1972 43.2344C89.3297 42.9028 89.5285 42.505 89.6611 42.2397C89.8599 41.7756 90.0587 41.444 90.2575 41.1788C90.7876 40.3831 90.8539 40.0515 90.5888 39.72Z" fill="#141414"/>
<path d="M101.258 46.1518C101.258 45.8866 101.192 45.6214 101.126 45.3561C101.059 45.2235 101.059 45.0909 100.993 44.9583C100.993 44.892 100.927 44.8256 100.927 44.7593C100.927 44.693 100.86 44.6267 100.794 44.5604C100.794 44.4941 100.728 44.4941 100.728 44.4278C100.728 44.3615 100.662 44.3615 100.662 44.2952C100.595 44.2289 100.529 44.1625 100.529 44.0962C100.529 44.0299 100.463 44.0299 100.463 44.0299L100.397 43.9636C100.065 43.6321 99.6676 43.4331 99.2037 43.3005C98.8724 43.1679 98.4748 43.1679 98.0772 43.1679H98.0109C97.8783 43.1679 97.6795 43.1679 97.547 43.2342C97.547 43.2342 97.547 43.2342 97.4807 43.2342C97.4807 43.2342 97.4807 43.2342 97.4145 43.2342C97.4145 43.2342 97.4145 43.2342 97.3482 43.2342H97.2819C97.2157 43.2342 97.2157 43.2342 97.1494 43.2342C96.4867 43.3668 95.824 43.6321 95.0951 43.9636C94.8963 44.0962 94.7637 44.1625 94.6975 44.2952C94.5649 44.3615 94.4987 44.4278 94.3661 44.4278V44.2952C94.4324 44.2952 94.4324 44.2952 94.4324 44.2288V44.1625C94.5649 43.8973 94.6312 43.6321 94.7637 43.4331C94.9625 42.9026 95.2276 42.4385 95.4264 41.9743C95.6252 41.5101 95.824 41.1786 96.0228 40.847C96.2879 40.4492 96.2879 40.0513 96.0891 39.7198C95.8903 39.3882 95.6915 39.123 95.4927 38.9903C95.2939 38.8577 95.1613 38.7251 95.0288 38.7251L94.8963 38.6588L94.7637 38.5925C94.6312 38.5262 94.3661 38.4599 94.0348 38.3936H93.9685H93.9022C93.836 38.3936 93.836 38.3936 93.7697 38.3936C93.5046 38.3936 93.3058 38.5262 93.1733 38.7251C93.107 38.7914 92.7757 39.3219 92.1793 40.3829C92.0467 40.6481 91.9142 40.9133 91.7817 41.2449C91.3841 42.1069 90.9202 43.2342 90.4563 44.4941C90.39 44.5604 90.2575 45.0909 89.9262 46.0855C89.396 47.478 89.1972 48.539 89.3297 49.2684C89.4623 49.9978 89.7936 50.5946 90.1912 50.9925C90.6551 51.324 91.3178 51.5893 92.0467 51.7219H92.5769C92.7094 51.7219 92.9082 51.7219 93.0408 51.6556C93.1733 51.5893 93.3058 51.523 93.3721 51.4567L93.4384 51.3903V51.324C93.5046 51.2577 93.5046 51.1251 93.4384 50.9925V50.9262C93.4384 50.8599 93.4384 50.8599 93.3721 50.7936C93.3721 50.7272 93.3058 50.5946 93.2396 50.5283C93.2396 50.5283 93.2396 50.462 93.1733 50.462C93.107 50.2631 93.0408 50.0641 92.9745 49.9315C92.9082 49.6 92.842 49.3347 92.842 49.0695C92.842 48.6716 92.842 48.4064 92.842 48.2075C92.842 48.1411 92.842 48.1411 92.842 48.0748C92.842 48.0085 92.842 47.9422 92.842 47.9422C92.842 47.8759 92.842 47.8096 92.842 47.8096C92.842 47.7433 92.842 47.677 92.9082 47.5444V47.478C92.9082 47.4117 92.9745 47.3454 92.9745 47.3454C93.0408 47.1465 93.107 47.0139 93.107 46.8149C93.1733 46.7486 93.2396 46.6823 93.3058 46.5497C93.5709 46.2845 93.836 46.0855 94.1673 45.8203C94.7637 45.2898 95.3602 44.892 95.9566 44.6267C96.0228 44.6267 96.0891 44.5604 96.1554 44.5604C96.6193 44.3615 97.0169 44.2952 97.3482 44.4278H97.4145C97.7458 44.5604 97.8784 44.9583 97.8121 45.6214C97.7458 46.2182 97.6133 46.9476 97.3482 47.677C97.0831 48.4064 96.8181 49.0032 96.4867 49.6C96.4205 49.7326 96.3542 49.8652 96.2216 49.9315C95.9566 50.2631 95.6915 50.3957 95.4927 50.3294C95.2276 50.2631 95.0951 50.1305 95.2276 49.9315C95.2276 49.8652 95.2939 49.7989 95.2939 49.7326C95.2939 49.6663 95.3602 49.6 95.4264 49.5337C95.4927 49.4674 95.4927 49.401 95.559 49.3347C95.6252 49.2684 95.6915 49.2021 95.6915 49.1358C95.9566 48.8706 96.0891 48.539 96.2879 48.2738C96.2879 48.2738 96.2879 48.2075 96.3542 48.2075V48.1411C96.4204 47.9422 96.3542 47.8096 96.1554 47.7433C95.8903 47.6107 95.6252 47.5444 95.3601 47.5444C95.3601 47.5444 95.3602 47.5444 95.2939 47.5444C95.1614 47.5444 95.0288 47.5444 94.8963 47.6107H94.83C94.4324 47.7433 94.1673 47.9422 93.9685 48.1411C93.7034 48.3401 93.5046 48.6053 93.3721 48.9369C93.2396 49.2684 93.1733 49.6 93.2396 49.8652C93.2396 50.1968 93.3721 50.462 93.5709 50.7272C93.7697 50.9925 94.1011 51.2577 94.4987 51.4567C94.8963 51.5893 95.2939 51.6556 95.7578 51.6556C96.2216 51.6556 96.6192 51.5893 96.8843 51.523C97.2819 51.4567 97.6133 51.324 97.8783 51.1251C98.6073 50.7272 99.2037 50.2631 99.6676 49.6663C100.065 49.2021 100.33 48.6716 100.529 48.1411C100.595 48.0085 100.595 47.8759 100.662 47.8096C100.662 47.7433 100.728 47.677 100.728 47.6107C101.192 47.1465 101.258 46.616 101.258 46.1518ZM108.879 39.7198C108.68 39.3882 108.481 39.1893 108.282 39.0567C108.084 38.924 107.951 38.8577 107.885 38.7914L107.62 38.6588C107.487 38.5925 107.222 38.5262 106.891 38.4599C106.825 38.4599 106.825 38.4599 106.758 38.4599C106.692 38.4599 106.692 38.4599 106.692 38.4599C106.493 38.4599 106.294 38.5925 106.162 38.7251C106.162 38.7251 106.162 38.7914 106.096 38.7914C106.029 38.8577 105.698 39.3882 105.102 40.3829C104.571 41.3775 103.975 42.7037 103.379 44.3615C102.782 45.8866 102.451 47.2128 102.385 48.2738C102.318 49.3347 102.318 50.0641 102.385 50.5946C102.451 50.6609 102.451 50.7936 102.517 50.9262C102.583 51.0588 102.65 51.1914 102.848 51.324C103.246 51.5893 103.71 51.7219 104.174 51.7882C104.571 51.8545 104.969 51.9208 105.367 51.9208C105.764 51.8545 106.096 51.8545 106.361 51.7882C106.692 51.6556 106.957 51.5893 107.156 51.523C107.355 51.4567 107.421 51.324 107.288 51.1914L107.156 50.7936C106.692 50.1968 106.427 49.401 106.427 48.3401C106.427 47.2791 106.626 46.2182 106.957 45.1572L107.288 44.2952C107.421 43.9636 107.554 43.6984 107.686 43.3668C107.885 42.8363 108.15 42.3722 108.349 41.9743C108.548 41.5101 108.746 41.1786 108.945 40.9133C109.078 40.3829 109.144 40.0513 108.879 39.7198Z" fill="#141414"/>
<path d="M121.934 39.8523C121.934 39.8523 121.867 39.786 121.934 39.8523L121.867 39.7197L121.536 39.2555L121.404 39.1892C121.337 39.1892 121.337 39.1892 121.337 39.1229C121.139 38.924 121.006 38.8577 120.873 38.7914C120.741 38.725 120.608 38.725 120.476 38.6587H120.41H120.343H120.277C120.211 38.6587 120.211 38.6587 120.211 38.6587C119.946 38.7914 119.747 38.924 119.747 38.9903H119.681C119.217 39.3881 118.885 39.8523 118.488 40.3828C118.156 40.9133 117.825 41.3775 117.626 41.7753C117.361 42.3058 117.03 42.8363 116.632 43.4994C116.235 44.1625 115.837 44.7593 115.506 45.3561C115.108 45.9529 114.71 46.4833 114.313 46.8812C113.915 47.3454 113.65 47.6106 113.385 47.6769C113.319 47.7432 113.319 47.7432 113.253 47.7432C113.12 47.7432 113.054 47.6769 112.921 47.6106L112.855 47.5443C112.855 47.478 112.789 47.4117 112.789 47.3454C112.789 47.3454 112.789 47.3454 112.789 47.2791C112.722 47.0138 112.656 46.6823 112.722 46.3507C112.722 46.0192 112.789 45.6876 112.855 45.3561C112.921 45.0245 112.988 44.7593 113.054 44.5603C113.054 44.494 113.054 44.494 113.054 44.494C113.054 44.494 113.054 44.494 113.054 44.4277C113.054 44.3614 113.12 44.3614 113.12 44.2951C113.186 44.2288 113.186 44.0962 113.253 44.0299C113.253 43.9635 113.319 43.9635 113.319 43.8972C113.385 43.7646 113.451 43.5657 113.518 43.3668C113.716 42.8363 113.915 42.3721 114.18 41.9742C114.379 41.5101 114.578 41.1785 114.777 40.9133C114.976 40.5154 114.976 40.1176 114.777 39.786C114.578 39.4545 114.379 39.2555 114.247 39.1229C113.982 38.924 113.716 38.7914 113.518 38.6587C113.385 38.5924 113.186 38.5261 112.789 38.4598H112.722C112.722 38.4598 112.722 38.4598 112.656 38.4598C112.656 38.4598 112.656 38.4598 112.59 38.4598H112.524C112.259 38.4598 112.06 38.5924 111.927 38.7914C111.861 38.8577 111.53 39.3881 110.999 40.3828C110.469 41.3775 109.873 42.7037 109.276 44.4277C109.276 44.494 109.276 44.494 109.276 44.5603C109.276 44.6266 109.276 44.6267 109.276 44.693C109.144 44.8919 109.078 45.0908 109.078 45.2898C108.481 47.3454 108.415 48.8705 108.945 49.9315C109.409 50.8598 110.204 51.324 111.397 51.324C111.463 51.324 111.53 51.324 111.596 51.324C111.662 51.324 111.728 51.324 111.795 51.324C111.927 51.324 111.993 51.324 112.126 51.2577C112.192 51.2577 112.192 51.1914 112.259 51.1914C112.259 51.1914 112.325 51.1914 112.325 51.125C112.391 51.125 112.457 51.125 112.524 51.0587H112.59C112.59 51.0587 112.656 51.0587 112.656 50.9924C112.656 50.9924 112.722 50.9924 112.722 50.9261C112.789 50.9261 112.789 50.8598 112.855 50.8598C112.921 50.7935 113.054 50.7272 113.12 50.6609C113.518 50.3293 113.982 49.9315 114.379 49.3347C114.777 48.8042 115.174 48.2074 115.572 47.6106C115.439 48.34 115.439 48.9368 115.439 49.401C115.439 49.8652 115.439 50.263 115.506 50.5946C115.506 50.8598 115.638 51.0587 115.903 51.324C116.367 51.5892 116.765 51.7218 117.229 51.7881C117.295 51.7881 117.361 51.7881 117.361 51.7881C117.428 51.7881 117.494 51.7881 117.494 51.7881C117.693 51.7881 117.891 51.8545 118.09 51.8545H118.156H118.223C118.289 51.8545 118.289 51.8545 118.355 51.8545C118.753 51.8545 119.084 51.7881 119.416 51.7218C119.482 51.7218 119.548 51.6555 119.681 51.6555C119.747 51.6555 119.813 51.5892 119.879 51.5892C120.012 51.5229 120.145 51.5229 120.211 51.4566H120.277C120.277 51.4566 120.343 51.4566 120.343 51.3903C120.41 51.324 120.476 51.2577 120.41 51.125C120.41 51.0587 120.41 51.0587 120.343 50.9924C120.343 50.9261 120.277 50.8598 120.277 50.7935L120.211 50.7272C119.747 50.1304 119.482 49.2684 119.482 48.2737C119.482 47.6106 119.548 47.0138 119.681 46.3507C119.681 46.2181 119.747 46.0855 119.747 45.9529C119.813 45.8202 119.813 45.6876 119.879 45.555C119.946 45.4224 119.946 45.2898 120.012 45.1571C120.012 45.0908 120.078 45.0245 120.078 44.9582C120.145 44.7593 120.211 44.494 120.343 44.2951C120.41 44.0962 120.542 43.8309 120.608 43.632C120.675 43.5657 120.675 43.4994 120.741 43.4331C120.807 43.1678 120.94 42.9689 121.006 42.7037C121.139 42.4384 121.205 42.2395 121.337 42.0406C121.602 41.5764 121.801 41.2448 121.934 40.9796C122 40.5817 122.066 40.2502 121.934 39.8523ZM121.337 36.8021C121.205 36.7357 121.006 36.6694 120.608 36.6031C120.277 36.5368 119.813 36.4042 119.416 36.1389C118.952 35.8737 118.488 35.5422 118.024 35.0117C117.56 34.4812 117.162 33.7518 116.831 32.8234C116.765 32.6908 116.765 32.6245 116.699 32.6245C116.632 32.6245 116.632 32.6245 116.566 32.6908C116.5 32.6908 116.5 32.6908 116.433 32.6908C116.433 32.6908 116.433 32.6908 116.367 32.6908H116.301C116.301 32.6908 116.301 32.6908 116.235 32.6908H116.168C115.97 32.6908 115.771 32.8234 115.506 32.9561C115.174 33.155 114.976 33.3539 114.777 33.5529C114.644 33.7518 114.512 34.017 114.512 34.3486C114.445 34.6801 114.578 35.078 114.843 35.5422C115.174 36.1389 115.771 36.6031 116.632 36.9347C117.494 37.2662 118.355 37.3988 119.15 37.4652C119.416 37.4652 119.614 37.4652 119.879 37.4652C120.41 37.4652 120.807 37.3988 121.139 37.3325C121.669 37.1999 121.735 37.0673 121.337 36.8021Z" fill="#141414"/>
<path d="M30.8148 59.613L32.2064 57.4248H31.5437L30.3509 59.4141H29.4894V57.4248H28.8267V59.4141H27.9653L26.7724 57.4248H26.1097L27.5014 59.613L25.8447 61.9339H26.5736L27.8327 59.9446H28.6942V61.9339H29.3569V59.9446H30.2184L31.4775 61.9339H32.2064L30.8148 59.613Z" fill="#A7A9AC"/>
<path d="M36.3151 57.4248L33.5981 60.9392V57.4248H32.9354V62.0002H33.5318L36.2488 58.4858V62.0002H36.9115V57.4248H36.3151Z" fill="#A7A9AC"/>
<path d="M38.767 57.4248L38.7007 59.3478C38.7007 59.812 38.6345 60.2098 38.5682 60.5414C38.5019 60.8066 38.4356 61.0719 38.3031 61.2045C38.1706 61.3371 38.038 61.4034 37.8392 61.4034C37.773 61.4034 37.7067 61.4034 37.6404 61.4034L37.5742 62.0002C37.7067 62.0665 37.8392 62.0665 37.9718 62.0665C38.2368 62.0665 38.5019 62.0002 38.7007 61.8013C38.8995 61.6023 39.0321 61.3371 39.0983 60.9392C39.1646 60.5414 39.2309 60.0109 39.2309 59.4141L39.2971 58.0879H41.2852V62.0665H41.9479V57.4911H38.767V57.4248Z" fill="#A7A9AC"/>
<path d="M47.5144 58.4856C47.3156 58.154 47.0505 57.8888 46.6529 57.6235C46.2553 57.4246 45.8577 57.292 45.3938 57.292C44.9299 57.292 44.5323 57.4246 44.1347 57.6235C43.7371 57.8225 43.472 58.0877 43.2732 58.4856C43.0744 58.8171 42.9419 59.215 42.9419 59.6792C42.9419 60.1433 43.0744 60.5412 43.2732 60.8727C43.472 61.2043 43.8034 61.5358 44.1347 61.7348C44.5323 61.9337 44.9299 62.0663 45.3938 62.0663C45.8577 62.0663 46.2553 61.9337 46.6529 61.7348C47.0505 61.5358 47.3156 61.2706 47.5144 60.8727C47.7132 60.5412 47.8457 60.1433 47.8457 59.6792C47.8457 59.215 47.7132 58.8171 47.5144 58.4856ZM46.918 60.5412C46.7855 60.8064 46.5867 61.0054 46.3216 61.138C46.0565 61.2706 45.7252 61.3369 45.3938 61.3369C45.0625 61.3369 44.7311 61.2706 44.4661 61.138C44.201 61.0054 44.0022 60.8064 43.8034 60.5412C43.6708 60.276 43.6046 60.0107 43.6046 59.6792C43.6046 59.3476 43.6708 59.0824 43.8034 58.8171C43.9359 58.5519 44.201 58.353 44.4661 58.2203C44.7311 58.0877 45.0625 58.0214 45.3938 58.0214C45.7252 58.0214 46.0565 58.0877 46.3216 58.2203C46.5867 58.353 46.7855 58.5519 46.918 58.8171C47.0505 59.0824 47.1168 59.4139 47.1168 59.6792C47.1168 59.9444 47.1168 60.276 46.918 60.5412Z" fill="#A7A9AC"/>
<path d="M52.2195 57.4248L49.5025 60.9393V57.4248H48.8398V62.0002H49.4362L52.1532 58.4858V62.0002H52.8159V57.4248H52.2195ZM51.4905 56.1649C51.4905 56.3639 51.4243 56.4965 51.2917 56.5628C51.1592 56.6291 51.0266 56.6954 50.8278 56.6954C50.629 56.6954 50.4965 56.6291 50.364 56.5628C50.2314 56.4965 50.1651 56.3639 50.1651 56.1649H49.7013C49.7013 56.4302 49.8338 56.6954 49.9663 56.828C50.1652 56.9607 50.4302 57.027 50.7616 57.027C51.0929 57.027 51.358 56.9607 51.5568 56.7617C51.7556 56.6291 51.8219 56.3639 51.8219 56.0986H51.4905V56.1649Z" fill="#A7A9AC"/>
<path d="M58.0511 59.613L59.6415 57.4248H58.9788L57.5209 59.4141H56.5932V57.4248H55.9305V62.0002H56.5932V60.0109H57.5209L58.9788 62.0002H59.7078L58.0511 59.613Z" fill="#A7A9AC"/>
<path d="M64.5454 58.4856C64.3466 58.154 64.0815 57.8888 63.6839 57.6235C63.2863 57.4246 62.8887 57.292 62.4248 57.292C61.9609 57.292 61.5633 57.4246 61.1657 57.6235C60.7681 57.8225 60.503 58.0877 60.3042 58.4856C60.1054 58.8171 59.9729 59.215 59.9729 59.6792C59.9729 60.1433 60.1054 60.5412 60.3042 60.8727C60.503 61.2043 60.8343 61.5358 61.1657 61.7348C61.5633 61.9337 61.9609 62.0663 62.4248 62.0663C62.8887 62.0663 63.2863 61.9337 63.6839 61.7348C64.0815 61.5358 64.3466 61.2706 64.5454 60.8727C64.7442 60.5412 64.8767 60.1433 64.8767 59.6792C64.8767 59.215 64.7442 58.8171 64.5454 58.4856ZM63.949 60.5412C63.8164 60.8064 63.6176 61.0054 63.3525 61.138C63.0875 61.2706 62.7561 61.3369 62.4248 61.3369C62.0934 61.3369 61.7621 61.2706 61.497 61.138C61.232 61.0054 61.0331 60.8064 60.8343 60.5412C60.7018 60.276 60.6355 60.0107 60.6355 59.6792C60.6355 59.3476 60.7018 59.0824 60.8343 58.8171C60.9669 58.5519 61.232 58.353 61.497 58.2203C61.7621 58.0877 62.0934 58.0214 62.4248 58.0214C62.7561 58.0214 63.0875 58.0877 63.3525 58.2203C63.6176 58.353 63.8164 58.5519 63.949 58.8171C64.0815 59.0824 64.1478 59.4139 64.1478 59.6792C64.1478 59.9444 64.1478 60.276 63.949 60.5412Z" fill="#A7A9AC"/>
<path d="M70.7083 57.4248H70.1782L68.3227 60.6077L66.4009 57.4248H65.8707V62.0002H66.4672V58.6847L68.1239 61.4034H68.3889L70.0456 58.6184V61.9339H70.6421L70.7083 57.4248Z" fill="#A7A9AC"/>
<path d="M72.1662 57.4248V62.0002H72.8289V58.0216H75.4796V62.0002H76.1423V57.4248H72.1662Z" fill="#A7A9AC"/>
<path d="M77.9316 57.4248L77.8653 59.3478C77.8653 59.812 77.799 60.2098 77.7328 60.5414C77.6665 60.8066 77.6002 61.0719 77.4677 61.2045C77.3352 61.3371 77.2026 61.4034 77.0038 61.4034C76.9375 61.4034 76.8713 61.4034 76.805 61.4034L76.7387 62.0002C76.8713 62.0665 77.0038 62.0665 77.1363 62.0665C77.4014 62.0665 77.6665 62.0002 77.8653 61.8013C78.0641 61.6023 78.1966 61.3371 78.2629 60.9392C78.3292 60.5414 78.3954 60.0109 78.3954 59.4141L78.4617 58.0879H80.4498V62.0665H81.1124V57.4911H77.9316V57.4248Z" fill="#A7A9AC"/>
<path d="M83.1668 61.4034V59.9446H85.4199V59.4141H83.1668V58.0216H85.7512V57.4248H82.5704V62.0002H85.8838V61.4034H83.1668Z" fill="#A7A9AC"/>
<path d="M88.9321 59.613L90.5226 57.4248H89.8599L88.402 59.4141H87.4742V57.4248H86.8115V62.0002H87.4742V60.0109H88.402L89.8599 62.0002H90.5888L88.9321 59.613Z" fill="#A7A9AC"/>
<path d="M93.3721 61.4035C93.0407 61.4035 92.7094 61.3372 92.4443 61.2046C92.1793 61.072 91.9805 60.873 91.7816 60.6078C91.6491 60.3426 91.5828 60.0773 91.5828 59.7458C91.5828 59.4142 91.6491 59.149 91.7816 58.8837C91.9142 58.6185 92.1793 58.4196 92.4443 58.2869C92.7094 58.1543 93.0407 58.088 93.3721 58.088C93.9022 58.088 94.2998 58.2869 94.6312 58.6185L95.0288 58.2206C94.83 57.9554 94.5649 57.8228 94.2998 57.6901C94.0348 57.5575 93.7034 57.4912 93.3058 57.4912C92.8419 57.4912 92.4443 57.6238 92.0467 57.8228C91.6491 58.0217 91.384 58.2869 91.1852 58.6848C90.9864 59.0163 90.8539 59.4142 90.8539 59.8784C90.8539 60.3426 90.9864 60.7404 91.1852 61.072C91.384 61.4035 91.6491 61.6688 92.0467 61.934C92.4443 62.1329 92.8419 62.2655 93.3058 62.2655C93.6372 62.2655 93.9685 62.1992 94.2998 62.0666C94.5649 61.934 94.83 61.7351 95.0288 61.5361L94.6312 61.1383C94.2998 61.2709 93.9022 61.4035 93.3721 61.4035Z" fill="#A7A9AC"/>
</g>
<defs>
<clipPath id="clip0_441_2161">
<rect width="122" height="62" fill="white"/>
</clipPath>
</defs>
</svg>
