<svg width="252" height="86" viewBox="0 0 252 86" fill="none" xmlns="http://www.w3.org/2000/svg">
<path d="M11.9501 60.5411C10.65 59.2311 10 57.3605 10 54.9291V45.4021H13.126V54.8026C13.126 58.1072 14.5526 59.7596 17.4058 59.7596C20.2589 59.7596 21.678 58.1072 21.6631 54.8026V45.4021H24.7371V54.9291C24.7371 57.3605 24.092 59.2311 22.8019 60.5411C22.0813 61.2229 21.2289 61.7502 20.2972 62.0907C19.3654 62.4311 18.3738 62.5776 17.3834 62.5209C16.3908 62.5774 15.397 62.431 14.4628 62.0906C13.5287 61.7502 12.6737 61.223 11.9501 60.5411Z" fill="#2E247A"/>
<path d="M43.6199 62.2603L40.1812 57.3107C39.9656 57.3257 39.7493 57.3257 39.5337 57.3107H35.7378V62.2156H32.6117V45.402H39.5337C40.8423 45.3779 42.1411 45.6316 43.3445 46.1462C44.3603 46.57 45.2261 47.2881 45.8304 48.2079C46.4278 49.1665 46.7306 50.2794 46.7013 51.4084C46.7304 52.5668 46.4059 53.7066 45.7709 54.6759C45.1202 55.6185 44.1912 56.3341 43.1138 56.7227L46.9841 62.2528L43.6199 62.2603ZM42.4885 48.9374C41.5863 48.3023 40.4929 47.9974 39.3923 48.074H35.7378V54.7726H39.3923C40.4955 54.8524 41.5915 54.5415 42.4885 53.8944C42.8224 53.5729 43.0879 53.1873 43.2693 52.7608C43.4507 52.3343 43.5442 51.8756 43.5442 51.4121C43.5442 50.9487 43.4507 50.49 43.2693 50.0635C43.0879 49.6369 42.8224 49.2514 42.4885 48.9299V48.9374Z" fill="#2E247A"/>
<path d="M56.3473 62.2604H53.1245L61.6616 45.4021H64.7355L73.2652 62.2604H70.0275L63.1725 48.5579L56.3473 62.2604Z" fill="#2E247A"/>
<path d="M79.9192 45.4021H83.0452V59.6107H91.8726V62.2604H79.9638L79.9192 45.4021Z" fill="#2E247A"/>
<path d="M101.042 61.9478C99.9919 61.6558 99.0136 61.1489 98.1693 60.4592L99.2485 58.0551C100.013 58.642 100.871 59.095 101.787 59.3949C102.756 59.7313 103.775 59.9048 104.801 59.9084C105.774 59.9741 106.747 59.7653 107.607 59.3056C107.888 59.1476 108.122 58.9173 108.284 58.6386C108.447 58.3598 108.531 58.0428 108.53 57.7202C108.536 57.4964 108.493 57.274 108.404 57.0684C108.315 56.8628 108.183 56.6789 108.016 56.5293C107.635 56.1945 107.189 55.9412 106.706 55.785C106.17 55.6064 105.456 55.4054 104.54 55.1822C103.485 54.9446 102.445 54.6388 101.429 54.2667C100.64 53.9691 99.9369 53.4807 99.3825 52.8451C98.7819 52.1025 98.477 51.1641 98.5266 50.2103C98.5142 49.311 98.7736 48.429 99.2709 47.6796C99.8363 46.8648 100.628 46.2334 101.548 45.8636C102.729 45.3849 103.996 45.1544 105.27 45.1863C106.292 45.1879 107.31 45.318 108.299 45.5733C109.214 45.7959 110.084 46.1708 110.874 46.6823L109.922 49.1236C109.197 48.698 108.422 48.3654 107.614 48.1337C106.853 47.9098 106.064 47.7921 105.27 47.7838C104.31 47.716 103.352 47.9335 102.516 48.4091C102.236 48.5847 102.005 48.8298 101.848 49.1206C101.69 49.4114 101.61 49.738 101.615 50.0688C101.609 50.2913 101.652 50.5125 101.742 50.716C101.833 50.9195 101.967 51.1002 102.136 51.2448C102.515 51.5834 102.962 51.8372 103.446 51.9891C103.975 52.1678 104.697 52.3687 105.605 52.592C106.652 52.8207 107.681 53.1217 108.686 53.4926C109.474 53.7997 110.178 54.2894 110.74 54.9217C111.337 55.6518 111.639 56.578 111.589 57.5192C111.603 58.4164 111.343 59.2966 110.845 60.0424C110.268 60.8544 109.47 61.4824 108.545 61.8511C107.363 62.3243 106.096 62.5522 104.823 62.5209C103.542 62.5177 102.267 62.3246 101.042 61.9478Z" fill="#2E247A"/>
<path d="M138.22 53.6488H141.197V60.3475C140.29 61.0526 139.264 61.5896 138.168 61.9328C137.017 62.2979 135.817 62.4837 134.61 62.4836C132.993 62.5083 131.395 62.1243 129.966 61.3672C128.623 60.652 127.501 59.5841 126.721 58.2783C125.95 56.9228 125.545 55.3904 125.545 53.8312C125.545 52.2719 125.95 50.7395 126.721 49.384C127.503 48.0743 128.631 47.0056 129.981 46.2952C131.419 45.5333 133.027 45.1467 134.655 45.1713C135.97 45.1559 137.277 45.3934 138.503 45.8709C139.621 46.3133 140.619 47.0148 141.413 47.9177L139.426 49.8678C138.825 49.248 138.104 48.7578 137.306 48.4275C136.509 48.0973 135.652 47.9339 134.789 47.9475C133.688 47.9253 132.6 48.1813 131.626 48.6918C130.719 49.1683 129.968 49.894 129.46 50.7833C128.928 51.7191 128.658 52.781 128.678 53.8572C128.662 54.9188 128.932 55.9653 129.46 56.8865C129.973 57.7771 130.723 58.5086 131.626 59.0003C132.588 59.5146 133.668 59.771 134.759 59.7446C135.97 59.7726 137.166 59.4717 138.22 58.8738V53.6488Z" fill="#2E247A"/>
<path d="M159.909 62.2602L156.47 57.3106C156.255 57.3256 156.038 57.3256 155.823 57.3106H152.019V62.2155H148.901V45.4019H155.823C157.121 45.3827 158.409 45.6363 159.604 46.1462C160.619 46.57 161.485 47.288 162.09 48.2079C162.684 49.1673 162.985 50.28 162.953 51.4084C162.985 52.566 162.663 53.7059 162.03 54.6758C161.379 55.6184 160.45 56.3341 159.373 56.7226L163.243 62.2528L159.909 62.2602ZM158.777 48.9373C157.872 48.3034 156.777 47.9987 155.674 48.0739H152.019V54.7726H155.674C156.779 54.8509 157.877 54.5402 158.777 53.8943C159.111 53.5728 159.377 53.1873 159.558 52.7608C159.74 52.3343 159.833 51.8756 159.833 51.4121C159.833 50.9486 159.74 50.4899 159.558 50.0634C159.377 49.6369 159.111 49.2513 158.777 48.9299V48.9373Z" fill="#2E247A"/>
<path d="M173.001 61.382C171.654 60.6656 170.531 59.5916 169.756 58.2782C168.983 56.9276 168.576 55.3984 168.576 53.8422C168.576 52.286 168.983 50.7569 169.756 49.4062C170.534 48.0968 171.656 47.0259 173.001 46.3099C174.436 45.5715 176.027 45.1863 177.642 45.1863C179.256 45.1863 180.847 45.5715 182.282 46.3099C183.628 47.021 184.751 48.0899 185.527 49.3988C186.298 50.7543 186.703 52.2867 186.703 53.8459C186.703 55.4052 186.298 56.9376 185.527 58.2931C184.749 59.6003 183.626 60.6687 182.282 61.382C180.845 62.1157 179.255 62.4982 177.642 62.4982C176.028 62.4982 174.438 62.1157 173.001 61.382ZM180.675 59.0002C181.559 58.5024 182.291 57.7712 182.788 56.8864C183.291 55.9519 183.555 54.9072 183.555 53.8459C183.555 52.7847 183.291 51.74 182.788 50.8055C182.293 49.917 181.561 49.1829 180.675 48.6843C179.741 48.1909 178.701 47.933 177.645 47.933C176.589 47.933 175.55 48.1909 174.616 48.6843C173.725 49.1802 172.991 49.9148 172.495 50.8055C171.992 51.74 171.729 52.7847 171.729 53.8459C171.729 54.9072 171.992 55.9519 172.495 56.8864C172.993 57.7732 173.728 58.5047 174.616 59.0002C175.548 59.4986 176.588 59.7594 177.645 59.7594C178.702 59.7594 179.743 59.4986 180.675 59.0002Z" fill="#2E247A"/>
<path d="M194.065 60.5411C192.764 59.2311 192.114 57.3605 192.114 54.9291V45.4021H195.24V54.8026C195.24 58.1072 196.667 59.7596 199.52 59.7596C202.373 59.7596 203.79 58.1072 203.77 54.8026V45.4021H206.852V54.9291C206.852 57.3605 206.206 59.2311 204.916 60.5411C203.391 61.806 201.472 62.4982 199.49 62.4982C197.509 62.4982 195.59 61.806 194.065 60.5411Z" fill="#2E247A"/>
<path d="M223.65 46.1464C224.665 46.5721 225.53 47.2897 226.136 48.2081C226.702 49.1772 227 50.2791 227 51.4011C227 52.5232 226.702 53.6251 226.136 54.5942C225.535 55.5205 224.669 56.2442 223.65 56.6708C222.447 57.1848 221.148 57.4384 219.84 57.4151H216.036V62.2753H212.91V45.4021H219.84C221.148 45.3788 222.447 45.6324 223.65 46.1464ZM222.794 53.8871C223.129 53.5668 223.395 53.1821 223.577 52.7561C223.759 52.3301 223.853 51.8718 223.853 51.4086C223.853 50.9454 223.759 50.487 223.577 50.0611C223.395 49.6351 223.129 49.2504 222.794 48.9301C221.889 48.2962 220.794 47.9915 219.691 48.0667H216.036V54.7654H219.691C220.794 54.8384 221.89 54.5311 222.794 53.8945V53.8871Z" fill="#2E247A"/>
<path d="M118.973 0L105.389 13.5834L107.629 15.8163L118.973 4.47322L130.234 15.7344L130.316 15.8163L132.548 13.5834L118.973 0Z" fill="#4493D0"/>
<path d="M148.781 13.5835L135.66 27.2786L137.825 29.5338L148.781 18.0939L159.738 29.5338L161.896 27.2786L148.781 13.5835Z" fill="#4493D0"/>
<path d="M88.687 13.7173L75.1036 27.2933L77.3439 29.5336L88.687 18.1905L100.023 29.5336L102.263 27.2933L88.687 13.7173Z" fill="#4493D0"/>
<path d="M6.832 76.756H4.116V83H2.772V76.756H0.056V75.58H6.832V76.756ZM14.5842 79.332C14.5842 79.4347 14.5748 79.57 14.5562 79.738H8.53617C8.62017 80.3913 8.90484 80.9187 9.39017 81.32C9.88484 81.712 10.4962 81.908 11.2242 81.908C12.1108 81.908 12.8248 81.6093 13.3662 81.012L14.1082 81.88C13.7722 82.272 13.3522 82.5707 12.8482 82.776C12.3535 82.9813 11.7982 83.084 11.1822 83.084C10.3982 83.084 9.70284 82.9253 9.09617 82.608C8.48951 82.2813 8.01817 81.8287 7.68217 81.25C7.35551 80.6713 7.19217 80.018 7.19217 79.29C7.19217 78.5713 7.35084 77.9227 7.66817 77.344C7.99484 76.7653 8.43817 76.3173 8.99817 76C9.56751 75.6733 10.2068 75.51 10.9162 75.51C11.6255 75.51 12.2555 75.6733 12.8062 76C13.3662 76.3173 13.8002 76.7653 14.1082 77.344C14.4255 77.9227 14.5842 78.5853 14.5842 79.332ZM10.9162 76.644C10.2722 76.644 9.73084 76.84 9.29217 77.232C8.86284 77.624 8.61084 78.1373 8.53617 78.772H13.2962C13.2215 78.1467 12.9648 77.638 12.5262 77.246C12.0968 76.8447 11.5602 76.644 10.9162 76.644ZM21.0981 83L18.9561 80.158L16.7861 83H15.2881L18.2141 79.206L15.4281 75.58H16.9261L18.9701 78.254L21.0001 75.58H22.4701L19.6701 79.206L22.6241 83H21.0981ZM24.0383 75.58H25.3823V78.73H29.6103V75.58H30.9543V83H29.6103V79.892H25.3823V83H24.0383V75.58ZM33.5676 75.58H34.9116V80.984L39.4616 75.58H40.6796V83H39.3356V77.596L34.7996 83H33.5676V75.58ZM49.2103 75.58V83H47.8663V80.004C47.0637 80.3773 46.2657 80.564 45.4723 80.564C44.5483 80.564 43.8343 80.3493 43.3303 79.92C42.8263 79.4907 42.5743 78.8467 42.5743 77.988V75.58H43.9183V77.904C43.9183 78.4173 44.077 78.8047 44.3943 79.066C44.721 79.3273 45.1737 79.458 45.7523 79.458C46.4057 79.458 47.1103 79.2947 47.8663 78.968V75.58H49.2103ZM58.5256 79.332C58.5256 79.4347 58.5162 79.57 58.4976 79.738H52.4776C52.5616 80.3913 52.8462 80.9187 53.3316 81.32C53.8262 81.712 54.4376 81.908 55.1656 81.908C56.0522 81.908 56.7662 81.6093 57.3076 81.012L58.0496 81.88C57.7136 82.272 57.2936 82.5707 56.7896 82.776C56.2949 82.9813 55.7396 83.084 55.1236 83.084C54.3396 83.084 53.6442 82.9253 53.0376 82.608C52.4309 82.2813 51.9596 81.8287 51.6236 81.25C51.2969 80.6713 51.1336 80.018 51.1336 79.29C51.1336 78.5713 51.2922 77.9227 51.6096 77.344C51.9362 76.7653 52.3796 76.3173 52.9396 76C53.5089 75.6733 54.1482 75.51 54.8576 75.51C55.5669 75.51 56.1969 75.6733 56.7476 76C57.3076 76.3173 57.7416 76.7653 58.0496 77.344C58.3669 77.9227 58.5256 78.5853 58.5256 79.332ZM54.8576 76.644C54.2136 76.644 53.6722 76.84 53.2336 77.232C52.8042 77.624 52.5522 78.1373 52.4776 78.772H57.2376C57.1629 78.1467 56.9062 77.638 56.4676 77.246C56.0382 76.8447 55.5016 76.644 54.8576 76.644ZM63.8446 83.084C63.0886 83.084 62.4119 82.9207 61.8146 82.594C61.2266 82.2673 60.7646 81.8193 60.4286 81.25C60.0926 80.6713 59.9246 80.018 59.9246 79.29C59.9246 78.562 60.0926 77.9133 60.4286 77.344C60.7646 76.7653 61.2266 76.3173 61.8146 76C62.4119 75.6733 63.0886 75.51 63.8446 75.51C64.5166 75.51 65.1139 75.6453 65.6366 75.916C66.1686 76.1867 66.5793 76.5787 66.8686 77.092L65.8466 77.75C65.6133 77.3953 65.3239 77.1293 64.9786 76.952C64.6333 76.7747 64.2506 76.686 63.8306 76.686C63.3453 76.686 62.9066 76.7933 62.5146 77.008C62.1319 77.2227 61.8286 77.5307 61.6046 77.932C61.3899 78.324 61.2826 78.7767 61.2826 79.29C61.2826 79.8127 61.3899 80.2747 61.6046 80.676C61.8286 81.068 62.1319 81.3713 62.5146 81.586C62.9066 81.8007 63.3453 81.908 63.8306 81.908C64.2506 81.908 64.6333 81.8193 64.9786 81.642C65.3239 81.4647 65.6133 81.1987 65.8466 80.844L66.8686 81.488C66.5793 82.0013 66.1686 82.398 65.6366 82.678C65.1139 82.9487 64.5166 83.084 63.8446 83.084ZM71.4926 79.864H69.9526V83H68.6086V75.58H69.9526V78.716H71.5206L73.9286 75.58H75.3706L72.5566 79.15L75.5666 83H73.9846L71.4926 79.864ZM76.9758 75.58H78.3198V80.984L82.8698 75.58H84.0878V83H82.7438V77.596L78.2078 83H76.9758V75.58ZM86.6965 75.58H88.0405V80.984L92.5905 75.58H93.8085V83H92.4645V77.596L87.9285 83H86.6965V75.58ZM90.1685 74.614C89.4779 74.614 88.9412 74.4507 88.5585 74.124C88.1759 73.788 87.9799 73.3073 87.9705 72.682H88.8805C88.8899 73.0273 89.0065 73.3073 89.2305 73.522C89.4639 73.7273 89.7719 73.83 90.1545 73.83C90.5372 73.83 90.8452 73.7273 91.0785 73.522C91.3119 73.3073 91.4332 73.0273 91.4425 72.682H92.3805C92.3712 73.3073 92.1705 73.788 91.7785 74.124C91.3865 74.4507 90.8499 74.614 90.1685 74.614ZM104.195 79.136C104.69 79.2667 105.072 79.4767 105.343 79.766C105.614 80.0553 105.749 80.4147 105.749 80.844C105.749 81.2827 105.6 81.6747 105.301 82.02C105.002 82.356 104.587 82.622 104.055 82.818C103.532 83.0047 102.944 83.098 102.291 83.098C101.74 83.098 101.199 83.028 100.667 82.888C100.144 82.7387 99.6777 82.5287 99.267 82.258L99.673 81.236C100.028 81.46 100.434 81.6373 100.891 81.768C101.348 81.8893 101.81 81.95 102.277 81.95C102.912 81.95 103.416 81.8427 103.789 81.628C104.172 81.404 104.363 81.1053 104.363 80.732C104.363 80.3867 104.209 80.1207 103.901 79.934C103.602 79.7473 103.178 79.654 102.627 79.654H101.269V78.688H102.529C103.033 78.688 103.43 78.5993 103.719 78.422C104.008 78.2447 104.153 78.002 104.153 77.694C104.153 77.358 103.98 77.0967 103.635 76.91C103.299 76.7233 102.842 76.63 102.263 76.63C101.526 76.63 100.746 76.8213 99.925 77.204L99.561 76.168C100.466 75.7107 101.414 75.482 102.403 75.482C103 75.482 103.537 75.566 104.013 75.734C104.489 75.902 104.862 76.14 105.133 76.448C105.404 76.756 105.539 77.106 105.539 77.498C105.539 77.862 105.418 78.1887 105.175 78.478C104.932 78.7673 104.606 78.9867 104.195 79.136ZM110.438 75.51C111.465 75.51 112.249 75.762 112.79 76.266C113.341 76.77 113.616 77.5213 113.616 78.52V83H112.342V82.02C112.118 82.3653 111.796 82.6313 111.376 82.818C110.966 82.9953 110.476 83.084 109.906 83.084C109.076 83.084 108.408 82.8833 107.904 82.482C107.41 82.0807 107.162 81.5533 107.162 80.9C107.162 80.2467 107.4 79.724 107.876 79.332C108.352 78.9307 109.108 78.73 110.144 78.73H112.272V78.464C112.272 77.8853 112.104 77.442 111.768 77.134C111.432 76.826 110.938 76.672 110.284 76.672C109.846 76.672 109.416 76.7467 108.996 76.896C108.576 77.036 108.222 77.2273 107.932 77.47L107.372 76.462C107.755 76.154 108.212 75.9207 108.744 75.762C109.276 75.594 109.841 75.51 110.438 75.51ZM110.13 82.048C110.644 82.048 111.087 81.936 111.46 81.712C111.834 81.4787 112.104 81.152 112.272 80.732V79.696H110.2C109.062 79.696 108.492 80.0787 108.492 80.844C108.492 81.2173 108.637 81.5113 108.926 81.726C109.216 81.9407 109.617 82.048 110.13 82.048ZM118.92 79.864H117.38V83H116.036V75.58H117.38V78.716H118.948L121.356 75.58H122.798L119.984 79.15L122.994 83H121.412L118.92 79.864ZM126.913 75.51C127.94 75.51 128.724 75.762 129.265 76.266C129.816 76.77 130.091 77.5213 130.091 78.52V83H128.817V82.02C128.593 82.3653 128.271 82.6313 127.851 82.818C127.44 82.9953 126.95 83.084 126.381 83.084C125.55 83.084 124.883 82.8833 124.379 82.482C123.884 82.0807 123.637 81.5533 123.637 80.9C123.637 80.2467 123.875 79.724 124.351 79.332C124.827 78.9307 125.583 78.73 126.619 78.73H128.747V78.464C128.747 77.8853 128.579 77.442 128.243 77.134C127.907 76.826 127.412 76.672 126.759 76.672C126.32 76.672 125.891 76.7467 125.471 76.896C125.051 77.036 124.696 77.2273 124.407 77.47L123.847 76.462C124.23 76.154 124.687 75.9207 125.219 75.762C125.751 75.594 126.316 75.51 126.913 75.51ZM126.605 82.048C127.118 82.048 127.562 81.936 127.935 81.712C128.308 81.4787 128.579 81.152 128.747 80.732V79.696H126.675C125.536 79.696 124.967 80.0787 124.967 80.844C124.967 81.2173 125.112 81.5113 125.401 81.726C125.69 81.9407 126.092 82.048 126.605 82.048ZM136.406 79.136C136.901 79.2667 137.283 79.4767 137.554 79.766C137.825 80.0553 137.96 80.4147 137.96 80.844C137.96 81.2827 137.811 81.6747 137.512 82.02C137.213 82.356 136.798 82.622 136.266 82.818C135.743 83.0047 135.155 83.098 134.502 83.098C133.951 83.098 133.41 83.028 132.878 82.888C132.355 82.7387 131.889 82.5287 131.478 82.258L131.884 81.236C132.239 81.46 132.645 81.6373 133.102 81.768C133.559 81.8893 134.021 81.95 134.488 81.95C135.123 81.95 135.627 81.8427 136 81.628C136.383 81.404 136.574 81.1053 136.574 80.732C136.574 80.3867 136.42 80.1207 136.112 79.934C135.813 79.7473 135.389 79.654 134.838 79.654H133.48V78.688H134.74C135.244 78.688 135.641 78.5993 135.93 78.422C136.219 78.2447 136.364 78.002 136.364 77.694C136.364 77.358 136.191 77.0967 135.846 76.91C135.51 76.7233 135.053 76.63 134.474 76.63C133.737 76.63 132.957 76.8213 132.136 77.204L131.772 76.168C132.677 75.7107 133.625 75.482 134.614 75.482C135.211 75.482 135.748 75.566 136.224 75.734C136.7 75.902 137.073 76.14 137.344 76.448C137.615 76.756 137.75 77.106 137.75 77.498C137.75 77.862 137.629 78.1887 137.386 78.478C137.143 78.7673 136.817 78.9867 136.406 79.136ZM145.925 75.58V83H144.581V80.004C143.779 80.3773 142.981 80.564 142.187 80.564C141.263 80.564 140.549 80.3493 140.045 79.92C139.541 79.4907 139.289 78.8467 139.289 77.988V75.58H140.633V77.904C140.633 78.4173 140.792 78.8047 141.109 79.066C141.436 79.3273 141.889 79.458 142.467 79.458C143.121 79.458 143.825 79.2947 144.581 78.968V75.58H145.925ZM148.534 75.58H149.878V80.984L154.428 75.58H155.646V83H154.302V77.596L149.766 83H148.534V75.58ZM161.139 79.864H159.599V83H158.255V75.58H159.599V78.716H161.167L163.575 75.58H165.017L162.203 79.15L165.213 83H163.631L161.139 79.864ZM174.61 83.112C173.303 83.112 172.286 82.7387 171.558 81.992C170.83 81.2453 170.466 80.172 170.466 78.772V73.2H171.866V78.716C171.866 80.816 172.785 81.866 174.624 81.866C175.52 81.866 176.206 81.6093 176.682 81.096C177.158 80.5733 177.396 79.78 177.396 78.716V73.2H178.754V78.772C178.754 80.1813 178.39 81.2593 177.662 82.006C176.934 82.7433 175.917 83.112 174.61 83.112ZM182.716 76.826C182.95 76.3967 183.295 76.07 183.752 75.846C184.21 75.622 184.765 75.51 185.418 75.51V76.812C185.344 76.8027 185.241 76.798 185.11 76.798C184.382 76.798 183.808 77.0173 183.388 77.456C182.978 77.8853 182.772 78.5013 182.772 79.304V83H181.428V75.58H182.716V76.826ZM189.763 75.51C190.79 75.51 191.574 75.762 192.115 76.266C192.666 76.77 192.941 77.5213 192.941 78.52V83H191.667V82.02C191.443 82.3653 191.121 82.6313 190.701 82.818C190.29 82.9953 189.8 83.084 189.231 83.084C188.4 83.084 187.733 82.8833 187.229 82.482C186.734 82.0807 186.487 81.5533 186.487 80.9C186.487 80.2467 186.725 79.724 187.201 79.332C187.677 78.9307 188.433 78.73 189.469 78.73H191.597V78.464C191.597 77.8853 191.429 77.442 191.093 77.134C190.757 76.826 190.262 76.672 189.609 76.672C189.17 76.672 188.741 76.7467 188.321 76.896C187.901 77.036 187.546 77.2273 187.257 77.47L186.697 76.462C187.08 76.154 187.537 75.9207 188.069 75.762C188.601 75.594 189.166 75.51 189.763 75.51ZM189.455 82.048C189.968 82.048 190.412 81.936 190.785 81.712C191.158 81.4787 191.429 81.152 191.597 80.732V79.696H189.525C188.386 79.696 187.817 80.0787 187.817 80.844C187.817 81.2173 187.962 81.5113 188.251 81.726C188.54 81.9407 188.942 82.048 189.455 82.048ZM195.428 72.612H196.772V83H195.428V72.612ZM201.466 83.084C200.86 83.084 200.276 83.0047 199.716 82.846C199.156 82.678 198.718 82.468 198.4 82.216L198.96 81.152C199.287 81.3853 199.684 81.572 200.15 81.712C200.617 81.852 201.088 81.922 201.564 81.922C202.74 81.922 203.328 81.586 203.328 80.914C203.328 80.69 203.249 80.5127 203.09 80.382C202.932 80.2513 202.731 80.158 202.488 80.102C202.255 80.0367 201.919 79.9667 201.48 79.892C200.883 79.7987 200.393 79.6913 200.01 79.57C199.637 79.4487 199.315 79.2433 199.044 78.954C198.774 78.6647 198.638 78.2587 198.638 77.736C198.638 77.064 198.918 76.5273 199.478 76.126C200.038 75.7153 200.79 75.51 201.732 75.51C202.227 75.51 202.722 75.5707 203.216 75.692C203.711 75.8133 204.117 75.9767 204.434 76.182L203.86 77.246C203.254 76.854 202.54 76.658 201.718 76.658C201.149 76.658 200.715 76.7513 200.416 76.938C200.118 77.1247 199.968 77.372 199.968 77.68C199.968 77.9227 200.052 78.114 200.22 78.254C200.388 78.394 200.594 78.4967 200.836 78.562C201.088 78.6273 201.438 78.702 201.886 78.786C202.484 78.8887 202.964 79.0007 203.328 79.122C203.702 79.234 204.019 79.43 204.28 79.71C204.542 79.99 204.672 80.382 204.672 80.886C204.672 81.558 204.383 82.0947 203.804 82.496C203.235 82.888 202.456 83.084 201.466 83.084ZM217.21 75.58V81.992C217.21 83.2893 216.888 84.246 216.244 84.862C215.6 85.4873 214.639 85.8 213.36 85.8C212.66 85.8 211.993 85.702 211.358 85.506C210.723 85.3193 210.21 85.0487 209.818 84.694L210.462 83.658C210.807 83.9567 211.232 84.19 211.736 84.358C212.249 84.5353 212.777 84.624 213.318 84.624C214.186 84.624 214.825 84.4187 215.236 84.008C215.656 83.5973 215.866 82.972 215.866 82.132V81.544C215.549 81.9267 215.157 82.216 214.69 82.412C214.233 82.5987 213.733 82.692 213.192 82.692C212.483 82.692 211.839 82.5427 211.26 82.244C210.691 81.936 210.243 81.5113 209.916 80.97C209.589 80.4193 209.426 79.794 209.426 79.094C209.426 78.394 209.589 77.7733 209.916 77.232C210.243 76.6813 210.691 76.2567 211.26 75.958C211.839 75.6593 212.483 75.51 213.192 75.51C213.752 75.51 214.27 75.6127 214.746 75.818C215.231 76.0233 215.628 76.3267 215.936 76.728V75.58H217.21ZM213.346 81.516C213.831 81.516 214.265 81.4133 214.648 81.208C215.04 81.0027 215.343 80.718 215.558 80.354C215.782 79.9807 215.894 79.5607 215.894 79.094C215.894 78.3753 215.656 77.7967 215.18 77.358C214.704 76.91 214.093 76.686 213.346 76.686C212.59 76.686 211.974 76.91 211.498 77.358C211.022 77.7967 210.784 78.3753 210.784 79.094C210.784 79.5607 210.891 79.9807 211.106 80.354C211.33 80.718 211.633 81.0027 212.016 81.208C212.408 81.4133 212.851 81.516 213.346 81.516ZM221.066 76.826C221.299 76.3967 221.645 76.07 222.102 75.846C222.559 75.622 223.115 75.51 223.768 75.51V76.812C223.693 76.8027 223.591 76.798 223.46 76.798C222.732 76.798 222.158 77.0173 221.738 77.456C221.327 77.8853 221.122 78.5013 221.122 79.304V83H219.778V75.58H221.066V76.826ZM228.534 83.084C227.797 83.084 227.134 82.9207 226.546 82.594C225.958 82.2673 225.496 81.8193 225.16 81.25C224.833 80.6713 224.67 80.018 224.67 79.29C224.67 78.562 224.833 77.9133 225.16 77.344C225.496 76.7653 225.958 76.3173 226.546 76C227.134 75.6733 227.797 75.51 228.534 75.51C229.271 75.51 229.929 75.6733 230.508 76C231.096 76.3173 231.553 76.7653 231.88 77.344C232.216 77.9133 232.384 78.562 232.384 79.29C232.384 80.018 232.216 80.6713 231.88 81.25C231.553 81.8193 231.096 82.2673 230.508 82.594C229.929 82.9207 229.271 83.084 228.534 83.084ZM228.534 81.908C229.01 81.908 229.435 81.8007 229.808 81.586C230.191 81.362 230.489 81.054 230.704 80.662C230.919 80.2607 231.026 79.8033 231.026 79.29C231.026 78.7767 230.919 78.324 230.704 77.932C230.489 77.5307 230.191 77.2227 229.808 77.008C229.435 76.7933 229.01 76.686 228.534 76.686C228.058 76.686 227.629 76.7933 227.246 77.008C226.873 77.2227 226.574 77.5307 226.35 77.932C226.135 78.324 226.028 78.7767 226.028 79.29C226.028 79.8033 226.135 80.2607 226.35 80.662C226.574 81.054 226.873 81.362 227.246 81.586C227.629 81.8007 228.058 81.908 228.534 81.908ZM241.159 75.58V83H239.885V81.88C239.614 82.2627 239.255 82.5613 238.807 82.776C238.368 82.9813 237.887 83.084 237.365 83.084C236.375 83.084 235.596 82.8133 235.027 82.272C234.457 81.7213 234.173 80.914 234.173 79.85V75.58H235.517V79.696C235.517 80.4147 235.689 80.9607 236.035 81.334C236.38 81.698 236.875 81.88 237.519 81.88C238.228 81.88 238.788 81.6653 239.199 81.236C239.609 80.8067 239.815 80.2 239.815 79.416V75.58H241.159ZM247.651 75.51C248.37 75.51 249.014 75.6687 249.583 75.986C250.153 76.3033 250.596 76.7467 250.913 77.316C251.24 77.8853 251.403 78.5433 251.403 79.29C251.403 80.0367 251.24 80.6993 250.913 81.278C250.596 81.8473 250.153 82.2907 249.583 82.608C249.014 82.9253 248.37 83.084 247.651 83.084C247.119 83.084 246.629 82.9813 246.181 82.776C245.743 82.5707 245.369 82.272 245.061 81.88V85.716H243.717V75.58H245.005V76.756C245.304 76.3453 245.682 76.0373 246.139 75.832C246.597 75.6173 247.101 75.51 247.651 75.51ZM247.539 81.908C248.015 81.908 248.44 81.8007 248.813 81.586C249.196 81.362 249.495 81.054 249.709 80.662C249.933 80.2607 250.045 79.8033 250.045 79.29C250.045 78.7767 249.933 78.324 249.709 77.932C249.495 77.5307 249.196 77.2227 248.813 77.008C248.44 76.7933 248.015 76.686 247.539 76.686C247.073 76.686 246.648 76.798 246.265 77.022C245.892 77.2367 245.593 77.54 245.369 77.932C245.155 78.324 245.047 78.7767 245.047 79.29C245.047 79.8033 245.155 80.2607 245.369 80.662C245.584 81.054 245.883 81.362 246.265 81.586C246.648 81.8007 247.073 81.908 247.539 81.908Z" fill="#666666"/>
</svg>
